<svg xmlns="http://www.w3.org/2000/svg" height="466.667" width="600"><defs><clipPath id="a" clipPathUnits="userSpaceOnUse"><path d="M4500 0H0v3500h4500V0M2232.6 968.582l-5-8.652 206.02-118.942L2541.02 903l76.7-44.27c18.89-10.902 43.36-16.421 67.15-16.421 21.46-.008 42.36 4.492 58.13 13.601l458.8 265.04c15.84 9.15 23.37 21.32 23.28 33.77l.24.13v73.54l-.26-.3c0 13.74-9.32 27.85-28.21 38.76l-11.48 6.62 16.43 9.49c32.78 18.94 31.02 50.75-3.57 71.51l3.57 2.05c33.22 19.2 30.97 51.6-4.95 72.34l-178.37 102.94-86.59 49.97 173.19 100.05-171.69 99.08 6.48 7.34c5.42.2 10.81.66 16.12 1.41l20.42-11.79c3.22 1.22 6.58 2.36 10.08 3.38 3.52 1.04 7.08 1.94 10.69 2.73l-3.49 12.71 16.79 9.69 22.34-2.04c1.37 2.08 2.93 4.14 4.72 6.16 1.79 2.03 3.76 3.97 5.87 5.83l-7.85 4.53 52.59 30.36 1.47-1.79c3.74.53 7.57.95 11.47 1.24 3.91.3 7.8.46 11.64.51l5.24 16.17c4.72 1.71 8.96 3.91 12.48 6.57l.26.02 28.88 2.17c.29 2.22.77 4.45 1.5 6.68.73 2.24 1.66 4.42 2.78 6.55l-6.28 1.97 442.31 255.37-28.84 16.66 34.95 20.18-476.28 274.98-532.75-307.58-265.47 153.26-152.39-87.98-171.01 98.69-192.07-110.95h-.88c-21.47 0-42.37-4.5-58.14-13.61l-458.8-265.03c-32.81-18.95-31.06-50.74 3.57-71.51l-3.57-2.06c-33.24-19.21-31.01-51.58 4.94-72.33l11.49-6.62-16.43-9.49c-15.04-8.69-22.43-20.09-23.11-31.87l-.43.19v-18.58l-233.23 134.65 446.52 257.8-8.66 5-455.18-262.8 250.55-144.65v-45.78l.35-.2c-.43-14.01 8.81-28.5 28.13-39.66l270.41-156.05-53.78-31.06 95.26-55-95.26-55 645.11-372.45 149.19 86.14 140.68-81.19-17.52-10.11-114.42 66.05-5-8.65 119.42-68.951L2464.77 947l66.25-38.23-97.4-56.239-201.02 116.051M1105.49 1579.39l-150.556-86.91 150.556-86.93 150.56 86.91-150.56 86.93m84.28 739.23l-131.21-75.75 281.43-162.48 281.44 162.48-131.21 75.75 137.3 79.28-19.14 11.05 19.14 11.05v8.17l-60.6 34.99 10.93 6.31-8.66 5-10.93-6.31-218.27 126.02-287.52-166.01 7.07-4.09-7.07 4.09V2420l19.14-11.05-19.14-11.05 137.3-79.28m413.27 175.39l-16.93-9.77 8.66-5 16.92 9.77-8.65 5m33.84 19.54l-16.92-9.76 8.66-5.01 16.92 9.77-8.66 5m33.85 19.54l-16.93-9.77 8.67-4.99 16.92 9.77-8.66 4.99m33.85 19.55l-16.93-9.77 8.66-5 16.92 9.77-8.65 5m1124.37-711.47l-134.84 77.82 23.47 13.56 110.17-63.61c-.98-.96-1.99-1.9-3.03-2.83l20.27-11.71c-1.35-3.05-2.22-6.15-2.61-9.27l-13.43-3.96"/></clipPath><radialGradient id="b" spreadMethod="pad" gradientTransform="scale(5489.5 -5489.5) rotate(37.301 .938 -.309)" gradientUnits="userSpaceOnUse" r="1" cy="0" cx="0" fy="0" fx="0"><stop offset="0" stop-color="#346887"/><stop offset="1" stop-color="#221e42"/></radialGradient><clipPath id="c" clipPathUnits="userSpaceOnUse"><path d="M2433.62 840.988L2227.6 959.93l5 8.652 201.02-116.051 97.4 56.239 10-5.77-107.4-62.012"/></clipPath><linearGradient id="d" spreadMethod="pad" gradientTransform="matrix(609.644 0 0 -609.644 2227.6 961.83)" gradientUnits="userSpaceOnUse" y2="0" x2="1" y1="0" x1="0"><stop offset="0" stop-color="#02d2da"/><stop offset="1" stop-color="#02629e"/></linearGradient><clipPath id="e" clipPathUnits="userSpaceOnUse"><path d="M2437.25 931.109l-119.42 68.951 5 8.65 114.42-66.05 17.52 10.11 10-5.77-27.52-15.891"/></clipPath><linearGradient id="f" spreadMethod="pad" gradientTransform="matrix(105.83 -81.5902 -158.058 -73.5104 2402.45 1045.74)" gradientUnits="userSpaceOnUse" y2="0" x2="1" y1="0" x1="0"><stop offset="0" stop-color="#ffa75d"/><stop offset="1" stop-color="#ff69a6"/></linearGradient><clipPath id="g" clipPathUnits="userSpaceOnUse"><path d="M1274.68 1703.02l-250.55 144.65 455.18 262.8 8.66-5-446.52-257.8 233.23-134.65v-10"/></clipPath><linearGradient id="h" spreadMethod="pad" gradientTransform="matrix(-57.1913 -459.901 -796.572 -33.0194 1240.14 1681.24)" gradientUnits="userSpaceOnUse" y2="0" x2="1" y1="0" x1="0"><stop offset="0" stop-color="#ffa75d"/><stop offset="1" stop-color="#ff69a6"/></linearGradient><clipPath id="i" clipPathUnits="userSpaceOnUse"><path d="M2993.69 1796.68l-1 3.64c2.2 1.06 4.34 2.17 6.39 3.36 1.83 1.05 3.54 2.14 5.18 3.26l6.22-.57-16.79-9.69m41.87 24.17l-12.43 7.18c1.35 3.05 2.21 6.16 2.61 9.28l25.77 7.58c-1 2.15-1.84 4.34-2.46 6.59-.61 2.25-.99 4.48-1.18 6.7l-4.61.43 18.98 10.96h.12c2.16-1.04 4.51-1.99 7.05-2.83 2.48-.8 5.01-1.46 7.6-1.99l.1-.14 11.04-13.4-52.59-30.36m-101.5 15.68c-2.08 0-4.16.46-5.75 1.37-3.16 1.83-3.17 4.8 0 6.64 1.59.91 3.67 1.37 5.75 1.37s4.16-.46 5.74-1.37c3.18-1.84 3.18-4.81 0-6.64-1.58-.91-3.66-1.37-5.74-1.37m-106.31 32.41l-110.17 63.61 34.95 20.17 122.58-70.77c-2.09-1-4.12-2.06-6.08-3.19a82.875 82.875 0 0 1-5.16-3.27l-28.57 2.62a54.293 54.293 0 0 0-4.71-6.17c-.91-1.02-1.86-2.02-2.84-3m329.84 22.36l-18.79 5.91c-1.37 3.16-3.7 6.17-6.92 8.88l.04.14 1.42 4.38 437.72 252.72 28.84-16.66-442.31-255.37"/></clipPath><radialGradient id="j" spreadMethod="pad" gradientTransform="scale(5489.5 -5489.5) rotate(37.301 .938 -.309)" gradientUnits="userSpaceOnUse" r="1" cy="0" cx="0" fy="0" fx="0"><stop offset="0" stop-color="#30607c"/><stop offset="1" stop-color="#1f1c3d"/></radialGradient><clipPath id="k" clipPathUnits="userSpaceOnUse"><path d="M2625.82 2134.25l-28.84 16.66 532.75 307.58 476.28-274.98-34.95-20.18-447.44 258.32-497.8-287.4"/></clipPath><radialGradient id="l" spreadMethod="pad" gradientTransform="scale(5489.5 -5489.5) rotate(37.301 .938 -.309)" gradientUnits="userSpaceOnUse" r="1" cy="0" cx="0" fy="0" fx="0"><stop offset="0" stop-color="#2983a0"/><stop offset="1" stop-color="#1b496a"/></radialGradient><clipPath id="m" clipPathUnits="userSpaceOnUse"><path d="M3043.26 1858.61l-23.7 2.16c-1.98 2.9-4.43 5.71-7.33 8.41l13.11 14.87c-3 1.39-5.91 2.88-8.7 4.49a94.82 94.82 0 0 0-7.78 5.02l-25.55-7.51c-4.65 1.7-9.49 3.15-14.49 4.33l-4.51 16.47c-3.85.1-7.73.32-11.61.68-3.9.36-7.7.84-11.42 1.42l-13.03-14.76c-5.42-.2-10.81-.65-16.11-1.41l-20.43 11.8a135.46 135.46 0 0 0-10.09-3.39 154.3 154.3 0 0 0-10.67-2.72l4.48-16.36c-.11-.05-.22-.1-.32-.16l-122.58 70.77 93.86 54.19-9.37 5.41c3.05 1.76 3.05 4.61 0 6.37l-154.58 89.25c-1.53.88-3.53 1.32-5.52 1.32-2 0-4-.44-5.52-1.32l-6.9 3.98c3.04 1.76 3.04 4.62 0 6.38l-20.71 11.95c-1.52.88-3.52 1.32-5.52 1.32-2 0-3.99-.44-5.52-1.32l-6.93 4 497.8 287.4 447.44-258.32-437.72-252.72 3.93 12.15c-3.56.84-7.08 1.8-10.54 2.89-3.47 1.09-6.77 2.27-9.93 3.54l-20.71-11.31c-1.07.04-2.15.06-3.22.06-4.6 0-9.16-.39-13.55-1.14l-.23.08-25.58 8.04a99.72 99.72 0 0 0-8.02-4.9c-2.86-1.56-5.84-3-8.91-4.35l12.25-14.87c-2.17-3.1-3.29-6.34-3.43-9.54l-.19-.1-21.15-11.56c2.02-1.89 3.9-3.86 5.59-5.92 1.7-2.05 3.15-4.13 4.42-6.23l28.17 2.12-18.98-10.96m-125.82 161.46l-85.58-49.41 85.58-49.4 85.57 49.4-85.57 49.41m368.25 20.07l-154.58-89.25 16.56-9.56 154.59 89.25-16.57 9.56m107.65 97.22l-292.6-168.94 16.56-9.56 292.6 168.93-16.56 9.57m-168.38-62.16l-154.58-89.24 16.56-9.57 154.58 89.25-16.56 9.56m-179.17 18.98l-85.57-49.4 85.57-49.41 85.58 49.41-85.58 49.4m128.36 74.11l-85.57-49.41 85.57-49.4 85.58 49.4-85.58 49.41m318.56-8.62l-138.01-79.68 16.56-9.57 138.02 79.69-16.57 9.56m-190.2 82.72l-85.58-49.4 85.58-49.41 85.57 49.41-85.57 49.4"/></clipPath><radialGradient id="n" spreadMethod="pad" gradientTransform="scale(5489.5 -5489.5) rotate(37.301 .938 -.309)" gradientUnits="userSpaceOnUse" r="1" cy="0" cx="0" fy="0" fx="0"><stop offset="0" stop-color="#267d98"/><stop offset="1" stop-color="#184766"/></radialGradient><clipPath id="o" clipPathUnits="userSpaceOnUse"><path d="M2917.44 1921.26l-85.58 49.4 85.58 49.41 85.57-49.41-85.57-49.4"/></clipPath><radialGradient id="p" spreadMethod="pad" gradientTransform="scale(5489.5 -5489.5) rotate(37.301 .938 -.309)" gradientUnits="userSpaceOnUse" r="1" cy="0" cx="0" fy="0" fx="0"><stop offset="0" stop-color="#2d85ab"/><stop offset="1" stop-color="#235c85"/></radialGradient><clipPath id="q" clipPathUnits="userSpaceOnUse"><path d="M3045.79 1995.37l-85.57 49.41 85.57 49.4 85.58-49.4-85.58-49.41"/></clipPath><clipPath id="r" clipPathUnits="userSpaceOnUse"><path d="M2960.22 1995.37h171.152v98.809H2960.22z"/></clipPath><radialGradient id="s" spreadMethod="pad" gradientTransform="scale(5489.5 -5489.5) rotate(37.301 .938 -.309)" gradientUnits="userSpaceOnUse" r="1" cy="0" cx="0" fy="0" fx="0"><stop offset="0" stop-color="#3385ae"/><stop offset="1" stop-color="#285b88"/></radialGradient><clipPath id="t" clipPathUnits="userSpaceOnUse"><path d="M3174.15 2069.48l-85.57 49.4 85.57 49.41 85.58-49.41-85.58-49.4"/></clipPath><radialGradient id="u" spreadMethod="pad" gradientTransform="scale(5489.5 -5489.5) rotate(37.301 .938 -.309)" gradientUnits="userSpaceOnUse" r="1" cy="0" cx="0" fy="0" fx="0"><stop offset="0" stop-color="#3385ae"/><stop offset="1" stop-color="#285b88"/></radialGradient><clipPath id="v" clipPathUnits="userSpaceOnUse"><path d="M3302.51 2143.58l-85.58 49.41 85.58 49.4 85.57-49.4-85.57-49.41"/></clipPath><radialGradient id="w" spreadMethod="pad" gradientTransform="scale(5489.5 -5489.5) rotate(37.301 .938 -.309)" gradientUnits="userSpaceOnUse" r="1" cy="0" cx="0" fy="0" fx="0"><stop offset="0" stop-color="#3385ae"/><stop offset="1" stop-color="#285b88"/></radialGradient><clipPath id="x" clipPathUnits="userSpaceOnUse"><path d="M3086.94 1976.39l-16.56 9.57 154.58 89.24 16.56-9.56-154.58-89.25"/></clipPath><radialGradient id="y" spreadMethod="pad" gradientTransform="scale(5489.5 -5489.5) rotate(37.301 .938 -.309)" gradientUnits="userSpaceOnUse" r="1" cy="0" cx="0" fy="0" fx="0"><stop offset="0" stop-color="#3385ae"/><stop offset="1" stop-color="#285b88"/></radialGradient><clipPath id="z" clipPathUnits="userSpaceOnUse"><path d="M3117.3 1958.86l-16.56 9.56 292.6 168.94 16.56-9.57-292.6-168.93"/></clipPath><radialGradient id="A" spreadMethod="pad" gradientTransform="scale(5489.5 -5489.5) rotate(37.301 .938 -.309)" gradientUnits="userSpaceOnUse" r="1" cy="0" cx="0" fy="0" fx="0"><stop offset="0" stop-color="#3385ae"/><stop offset="1" stop-color="#285b88"/></radialGradient><clipPath id="B" clipPathUnits="userSpaceOnUse"><path d="M3147.67 1941.33l-16.56 9.56 154.58 89.25 16.57-9.56-154.59-89.25"/></clipPath><radialGradient id="C" spreadMethod="pad" gradientTransform="scale(5489.5 -5489.5) rotate(37.301 .938 -.309)" gradientUnits="userSpaceOnUse" r="1" cy="0" cx="0" fy="0" fx="0"><stop offset="0" stop-color="#3385ae"/><stop offset="1" stop-color="#285b88"/></radialGradient><clipPath id="D" clipPathUnits="userSpaceOnUse"><path d="M3371.26 2070.42l-16.56 9.57 138.01 79.68 16.57-9.56-138.02-79.69"/></clipPath><radialGradient id="E" spreadMethod="pad" gradientTransform="scale(5489.5 -5489.5) rotate(37.301 .938 -.309)" gradientUnits="userSpaceOnUse" r="1" cy="0" cx="0" fy="0" fx="0"><stop offset="0" stop-color="#3385ae"/><stop offset="1" stop-color="#285b88"/></radialGradient><clipPath id="F" clipPathUnits="userSpaceOnUse"><path d="M1467.65 2405.85l-8.66 5 8.66 5 8.66-5-8.66-5"/></clipPath><linearGradient id="G" spreadMethod="pad" gradientTransform="matrix(855 -230 -230 -855 1328.5 2448.29)" gradientUnits="userSpaceOnUse" y2="0" x2="1" y1="0" x1="0"><stop offset="0" stop-color="#26b5a4"/><stop offset="1" stop-color="#4161ad"/></linearGradient><clipPath id="H" clipPathUnits="userSpaceOnUse"><path d="M1566.92 2463.16l-8.66 5 10.93 6.31 8.66-5-10.93-6.31m27.85 16.08l-8.66 5 16.93 9.77 8.65-5-16.92-9.77m33.85 19.54l-8.66 5.01 16.92 9.76 8.66-5-16.92-9.77m33.85 19.55l-8.67 4.99 16.93 9.77 8.66-4.99-16.92-9.77m33.84 19.54l-8.66 5 16.93 9.77 8.65-5-16.92-9.77"/></clipPath><linearGradient id="I" spreadMethod="pad" gradientTransform="matrix(855 -230 -230 -855 1356.37 2551.88)" gradientUnits="userSpaceOnUse" y2="0" x2="1" y1="0" x1="0"><stop offset="0" stop-color="#26b5a4"/><stop offset="1" stop-color="#4161ad"/></linearGradient><clipPath id="J" clipPathUnits="userSpaceOnUse"><path d="M1730.16 2557.41l-8.67 5 13 7.5 12.99-7.5-8.66-5-4.33 2.5z"/></clipPath><linearGradient id="K" spreadMethod="pad" gradientTransform="matrix(855 -230 -230 -855 1384.69 2657.17)" gradientUnits="userSpaceOnUse" y2="0" x2="1" y1="0" x1="0"><stop offset="0" stop-color="#26b5a4"/><stop offset="1" stop-color="#4161ad"/></linearGradient><clipPath id="L" clipPathUnits="userSpaceOnUse"><path d="M1774.34 2536.9l-17.76 10.25 8.66 5 17.76-10.25zm35.52-20.51l-17.76 10.25 8.66 5 17.76-10.25zm35.53-20.51l-17.77 10.26 8.66 5 17.77-10.26zm35.52-20.51l-17.76 10.25 8.66 5 17.76-10.25zm35.52-20.51l-17.76 10.26 8.66 5 17.76-10.26zm35.53-20.51l-17.77 10.26 8.66 5 17.77-10.26zm35.52-20.51l-17.76 10.26 8.66 5 17.76-10.26zm35.52-20.51l-17.76 10.26 8.66 5 17.77-10.26zm35.53-20.51l-17.77 10.26 8.66 5 17.77-10.26zm35.52-20.51l-17.76 10.26 8.66 5 17.76-10.26zm35.53-20.5l-17.77 10.25 8.66 5 17.76-10.25zm35.52-20.52l-17.77 10.26 8.66 5 17.77-10.26zm35.52-20.5l-17.76 10.25 8.66 5 17.76-10.25z"/></clipPath><linearGradient id="M" spreadMethod="pad" gradientTransform="matrix(855 -230 -230 -855 1365.94 2587.45)" gradientUnits="userSpaceOnUse" y2="0" x2="1" y1="0" x1="0"><stop offset="0" stop-color="#26b5a4"/><stop offset="1" stop-color="#4161ad"/></linearGradient><clipPath id="N" clipPathUnits="userSpaceOnUse"><path d="M2227.04 2275.53l-8.66 5 8.66 5 8.66-5z"/></clipPath><linearGradient id="O" spreadMethod="pad" gradientTransform="matrix(855 -230 -230 -855 1347.05 2517.25)" gradientUnits="userSpaceOnUse" y2="0" x2="1" y1="0" x1="0"><stop offset="0" stop-color="#26b5a4"/><stop offset="1" stop-color="#4161ad"/></linearGradient><clipPath id="P" clipPathUnits="userSpaceOnUse"><path d="M1339.99 2080.39l-281.43 162.48 131.21 75.75 150.22-86.73 150.23 86.73 131.21-75.75-281.44-162.48"/></clipPath><radialGradient id="Q" spreadMethod="pad" gradientTransform="scale(5489.5 -5489.5) rotate(37.301 .938 -.309)" gradientUnits="userSpaceOnUse" r="1" cy="0" cx="0" fy="0" fx="0"><stop offset="0" stop-color="#23475c"/><stop offset="1" stop-color="#17142d"/></radialGradient><clipPath id="R" clipPathUnits="userSpaceOnUse"><path d="M1339.99 2231.89l-150.22 86.73-137.3 79.28 19.14 11.05 268.38-154.96 268.39 154.96 19.14-11.05-137.3-79.28-150.23-86.73"/></clipPath><linearGradient id="S" spreadMethod="pad" gradientTransform="matrix(-605.436 0 0 605.436 1572.73 2397.89)" gradientUnits="userSpaceOnUse" y2="0" x2="1" y1="0" x1="0"><stop offset="0" stop-color="#02cce3"/><stop offset="1" stop-color="#02629e"/></linearGradient><clipPath id="T" clipPathUnits="userSpaceOnUse"><path d="M1340 2231.89v-93.61l-287.53 166v93.62z"/></clipPath><linearGradient id="U" spreadMethod="pad" gradientTransform="scale(-336.42 336.42) rotate(28.301 -14.876 -4.76)" gradientUnits="userSpaceOnUse" y2="0" x2="1" y1="0" x1="0"><stop offset="0" stop-color="#02aab0"/><stop offset="1" stop-color="#024873"/></linearGradient><clipPath id="V" clipPathUnits="userSpaceOnUse"><path d="M1340 2231.89v-93.61l287.53 166v93.62z"/></clipPath><linearGradient id="W" spreadMethod="pad" gradientTransform="scale(-360.684 360.684) rotate(-34.335 8.383 10.652)" gradientUnits="userSpaceOnUse" y2="0" x2="1" y1="0" x1="0"><stop offset="0" stop-color="#02d2da"/><stop offset="1" stop-color="#02629e"/></linearGradient><clipPath id="X" clipPathUnits="userSpaceOnUse"><path d="M1627.52 2420l-7.07 4.08 7.07 4.09V2420"/></clipPath><radialGradient id="Y" spreadMethod="pad" gradientTransform="scale(5489.5 -5489.5) rotate(37.301 .938 -.309)" gradientUnits="userSpaceOnUse" r="1" cy="0" cx="0" fy="0" fx="0"><stop offset="0" stop-color="#81a1b5"/><stop offset="1" stop-color="#76748a"/></radialGradient><clipPath id="Z" clipPathUnits="userSpaceOnUse"><path d="M1620.45 2424.08l-280.46 161.93-280.45-161.93-7.07 4.09 287.52 166.01 218.27-126.02-5.99-3.46 8.66-5 5.99 3.46 60.6-34.99-7.07-4.09"/></clipPath><radialGradient id="aa" spreadMethod="pad" gradientTransform="scale(5489.5 -5489.5) rotate(37.301 .938 -.309)" gradientUnits="userSpaceOnUse" r="1" cy="0" cx="0" fy="0" fx="0"><stop offset="0" stop-color="#5f88a0"/><stop offset="1" stop-color="#514e6a"/></radialGradient><clipPath id="ab" clipPathUnits="userSpaceOnUse"><path d="M1560.93 2459.7l-8.66 5 5.99 3.46 8.66-5-5.99-3.46"/></clipPath><linearGradient id="ac" spreadMethod="pad" gradientTransform="matrix(855 -230 -230 -855 1356.37 2551.88)" gradientUnits="userSpaceOnUse" y2="0" x2="1" y1="0" x1="0"><stop offset="0" stop-color="#54c5b7"/><stop offset="1" stop-color="#6982be"/></linearGradient><clipPath id="ad" clipPathUnits="userSpaceOnUse"><path d="M1608.38 2408.95l-7.07 4.08 19.14 11.05 7.07-4.08-19.14-11.05"/></clipPath><radialGradient id="ae" spreadMethod="pad" gradientTransform="scale(5489.5 -5489.5) rotate(37.301 .938 -.309)" gradientUnits="userSpaceOnUse" r="1" cy="0" cx="0" fy="0" fx="0"><stop offset="0" stop-color="#9cb5c5"/><stop offset="1" stop-color="#9391a3"/></radialGradient><clipPath id="af" clipPathUnits="userSpaceOnUse"><path d="M1339.99 2253.99v8.17l261.32 150.87 7.07-4.08-268.39-154.96"/></clipPath><linearGradient id="ag" spreadMethod="pad" gradientTransform="matrix(-605.436 0 0 605.436 1572.73 2397.89)" gradientUnits="userSpaceOnUse" y2="0" x2="1" y1="0" x1="0"><stop offset="0" stop-color="#83e6f2"/><stop offset="1" stop-color="#83b3d0"/></linearGradient><clipPath id="ah" clipPathUnits="userSpaceOnUse"><path d="M1601.31 2413.03l-60.61 35 3.3 1.91-8.65 5-3.31-1.91-192.05 110.87-261.31-150.87-19.14 11.05 280.45 161.93 280.46-161.93-19.14-11.05"/></clipPath><radialGradient id="ai" spreadMethod="pad" gradientTransform="scale(5489.5 -5489.5) rotate(37.301 .938 -.309)" gradientUnits="userSpaceOnUse" r="1" cy="0" cx="0" fy="0" fx="0"><stop offset="0" stop-color="#81a1b4"/><stop offset="1" stop-color="#76738a"/></radialGradient><clipPath id="aj" clipPathUnits="userSpaceOnUse"><path d="M1540.7 2448.03l-8.66 5 3.31 1.91 8.65-5-3.3-1.91"/></clipPath><linearGradient id="ak" spreadMethod="pad" gradientTransform="matrix(855 -230 -230 -855 1356.37 2551.88)" gradientUnits="userSpaceOnUse" y2="0" x2="1" y1="0" x1="0"><stop offset="0" stop-color="#78d1c6"/><stop offset="1" stop-color="#899ccc"/></linearGradient><clipPath id="al" clipPathUnits="userSpaceOnUse"><path d="M1339.99 2262.16l-261.31 150.87 261.31 150.87 192.05-110.87 8.66-5 60.61-35-261.32-150.87"/></clipPath><linearGradient id="am" spreadMethod="pad" gradientTransform="matrix(-605.436 0 0 605.436 1572.73 2397.89)" gradientUnits="userSpaceOnUse" y2="0" x2="1" y1="0" x1="0"><stop offset="0" stop-color="#62dfee"/><stop offset="1" stop-color="#629dc3"/></linearGradient><clipPath id="an" clipPathUnits="userSpaceOnUse"><path d="M1052.47 2420v8.17l7.07-4.09-7.07-4.08"/></clipPath><radialGradient id="ao" spreadMethod="pad" gradientTransform="scale(5489.5 -5489.5) rotate(37.301 .938 -.309)" gradientUnits="userSpaceOnUse" r="1" cy="0" cx="0" fy="0" fx="0"><stop offset="0" stop-color="#81a1b5"/><stop offset="1" stop-color="#76748a"/></radialGradient><clipPath id="ap" clipPathUnits="userSpaceOnUse"><path d="M1071.61 2408.95l-19.14 11.05 7.07 4.08 19.14-11.05-7.07-4.08"/></clipPath><radialGradient id="aq" spreadMethod="pad" gradientTransform="scale(5489.5 -5489.5) rotate(37.301 .938 -.309)" gradientUnits="userSpaceOnUse" r="1" cy="0" cx="0" fy="0" fx="0"><stop offset="0" stop-color="#9cb5c4"/><stop offset="1" stop-color="#9391a3"/></radialGradient><clipPath id="ar" clipPathUnits="userSpaceOnUse"><path d="M1339.99 2253.99l-268.38 154.96 7.07 4.08 261.31-150.87v-8.17"/></clipPath><linearGradient id="as" spreadMethod="pad" gradientTransform="matrix(-605.436 0 0 605.436 1572.73 2397.89)" gradientUnits="userSpaceOnUse" y2="0" x2="1" y1="0" x1="0"><stop offset="0" stop-color="#84e6f1"/><stop offset="1" stop-color="#84b2d0"/></linearGradient><clipPath id="at" clipPathUnits="userSpaceOnUse"><path d="M2164.9 947.82l-645.11 372.45 95.26 55 549.85-317.45 53.91 31.13 95.28-54.99-149.19-86.14"/></clipPath><radialGradient id="au" spreadMethod="pad" gradientTransform="scale(5489.5 -5489.5) rotate(37.301 .938 -.309)" gradientUnits="userSpaceOnUse" r="1" cy="0" cx="0" fy="0" fx="0"><stop offset="0" stop-color="#23475c"/><stop offset="1" stop-color="#17142d"/></radialGradient><clipPath id="av" clipPathUnits="userSpaceOnUse"><path d="M3089.62 1849.42l-1.47 1.79 69.44 40.09 6.28-1.97a42.059 42.059 0 0 1-2.78-6.55c-.73-2.23-1.21-4.46-1.5-6.68l-28.88-2.17-.26-.02c-3.52-2.66-7.76-4.86-12.48-6.57l-5.24-16.17c-3.84-.05-7.73-.21-11.64-.51-3.9-.29-7.73-.71-11.47-1.24"/></clipPath><radialGradient id="aw" spreadMethod="pad" gradientTransform="scale(5489.5 -5489.5) rotate(37.301 .938 -.309)" gradientUnits="userSpaceOnUse" r="1" cy="0" cx="0" fy="0" fx="0"><stop offset="0" stop-color="#2b5670"/><stop offset="1" stop-color="#1c1937"/></radialGradient><clipPath id="ax" clipPathUnits="userSpaceOnUse"><path d="M3088.15 1851.21l-11.04 13.4-.1.14c-2.59.53-5.12 1.19-7.6 1.99-2.54.84-4.89 1.79-7.05 2.83h-.12l71.1 41.04-1.42-4.38-.04-.14c3.22-2.71 5.55-5.72 6.92-8.88l18.79-5.91-69.44-40.09"/></clipPath><radialGradient id="ay" spreadMethod="pad" gradientTransform="scale(5489.5 -5489.5) rotate(37.301 .938 -.309)" gradientUnits="userSpaceOnUse" r="1" cy="0" cx="0" fy="0" fx="0"><stop offset="0" stop-color="#285067"/><stop offset="1" stop-color="#1a1733"/></radialGradient><clipPath id="az" clipPathUnits="userSpaceOnUse"><path d="M3034.07 1867.45c-1.27 2.1-2.72 4.18-4.42 6.23-1.69 2.06-3.57 4.03-5.59 5.92l21.15 11.56.19.1c.14 3.2 1.26 6.44 3.43 9.54l-12.25 14.87c3.07 1.35 6.05 2.79 8.91 4.35a99.72 99.72 0 0 1 8.02 4.9l25.58-8.04.23-.08c4.39.75 8.95 1.14 13.55 1.14 1.07 0 2.15-.02 3.22-.06l20.71 11.31c3.16-1.27 6.46-2.45 9.93-3.54 3.46-1.09 6.98-2.05 10.54-2.89l-3.93-12.15-71.1-41.04-28.17-2.12"/></clipPath><radialGradient id="aA" spreadMethod="pad" gradientTransform="scale(5489.5 -5489.5) rotate(37.301 .938 -.309)" gradientUnits="userSpaceOnUse" r="1" cy="0" cx="0" fy="0" fx="0"><stop offset="0" stop-color="#20687e"/><stop offset="1" stop-color="#143b55"/></radialGradient><clipPath id="aB" clipPathUnits="userSpaceOnUse"><path d="M2976.41 1777.86l-20.42 11.79c-5.31-.75-10.7-1.21-16.12-1.41l-6.48-7.34-104.44 60.27 13.43 3.96c.39 3.12 1.26 6.22 2.61 9.27l-20.27 11.71c1.04.93 2.05 1.87 3.03 2.83l145.55-84.03 20.39 11.77 3.49-12.71c-3.61-.79-7.17-1.69-10.69-2.73-3.5-1.02-6.86-2.16-10.08-3.38m56.41 26.47l-22.34 2.04 25.08 14.48 7.85-4.53c-2.11-1.86-4.08-3.8-5.87-5.83a54.321 54.321 0 0 1-4.72-6.16"/></clipPath><radialGradient id="aC" spreadMethod="pad" gradientTransform="scale(5489.5 -5489.5) rotate(37.301 .938 -.309)" gradientUnits="userSpaceOnUse" r="1" cy="0" cx="0" fy="0" fx="0"><stop offset="0" stop-color="#2b5670"/><stop offset="1" stop-color="#1c1937"/></radialGradient><clipPath id="aD" clipPathUnits="userSpaceOnUse"><path d="M2973.3 1784.91l-145.55 84.03c.98.98 1.93 1.98 2.84 3 1.78 2.02 3.35 4.09 4.71 6.17l28.57-2.62c1.64 1.12 3.35 2.22 5.16 3.27a89.56 89.56 0 0 0 6.08 3.19l104.29-60.21 63.86 36.87 4.61-.43c.19-2.22.57-4.45 1.18-6.7.62-2.25 1.46-4.44 2.46-6.59l-25.77-7.58c-.4-3.12-1.26-6.23-2.61-9.28l12.43-7.18-25.08-14.48-6.22.57a77.837 77.837 0 0 0-5.18-3.26c-2.05-1.19-4.19-2.3-6.39-3.36l1-3.64-20.39-11.77m-39.24 61c-2.08 0-4.16-.46-5.75-1.37-3.17-1.84-3.16-4.81 0-6.64 1.59-.91 3.67-1.37 5.75-1.37s4.16.46 5.74 1.37c3.18 1.83 3.18 4.8 0 6.64-1.58.91-3.66 1.37-5.74 1.37"/></clipPath><radialGradient id="aE" spreadMethod="pad" gradientTransform="scale(5489.5 -5489.5) rotate(37.301 .938 -.309)" gradientUnits="userSpaceOnUse" r="1" cy="0" cx="0" fy="0" fx="0"><stop offset="0" stop-color="#285067"/><stop offset="1" stop-color="#1a1733"/></radialGradient><clipPath id="aF" clipPathUnits="userSpaceOnUse"><path d="M2979.4 1821.74l-104.29 60.21c.1.06.21.11.32.16l-4.48 16.36c3.59.78 7.16 1.69 10.67 2.72 3.52 1.03 6.88 2.17 10.09 3.39l20.43-11.8c5.3.76 10.69 1.21 16.11 1.41l13.03 14.76c3.72-.58 7.52-1.06 11.42-1.42 3.88-.36 7.76-.58 11.61-.68l4.51-16.47c5-1.18 9.84-2.63 14.49-4.33l25.55 7.51c2.41-1.73 5-3.41 7.78-5.02 2.79-1.61 5.7-3.1 8.7-4.49l-13.11-14.87c2.9-2.7 5.35-5.51 7.33-8.41l23.7-2.16-63.86-36.87"/></clipPath><radialGradient id="aG" spreadMethod="pad" gradientTransform="scale(5489.5 -5489.5) rotate(37.301 .938 -.309)" gradientUnits="userSpaceOnUse" r="1" cy="0" cx="0" fy="0" fx="0"><stop offset="0" stop-color="#20687e"/><stop offset="1" stop-color="#143b55"/></radialGradient><clipPath id="aH" clipPathUnits="userSpaceOnUse"><path d="M2684.87 842.309c-23.79 0-48.26 5.519-67.15 16.421l-76.7 44.27 187.76 108.4c5.07 1.82 9.84 3.99 14.22 6.52l442.37 255.55 11.48-6.62c18.89-10.91 28.21-25.02 28.21-38.76l.26.3v-73.54l-.24-.13c.09-12.45-7.44-24.62-23.28-33.77L2743 855.91c-15.77-9.109-36.67-13.609-58.13-13.601m-153.85 66.461L2464.77 947l116.29 67.15-5 8.65-121.29-70.03-140.68 81.19 140.34 81.02 163.29-94.24c18.89-10.9 43.36-16.42 67.15-16.42 4.22 0 8.42.17 12.56.52l-166.41-96.07"/></clipPath><radialGradient id="aI" spreadMethod="pad" gradientTransform="scale(5489.5 -5489.5) rotate(37.301 .938 -.309)" gradientUnits="userSpaceOnUse" r="1" cy="0" cx="0" fy="0" fx="0"><stop offset="0" stop-color="#23475c"/><stop offset="1" stop-color="#17142d"/></radialGradient><clipPath id="aJ" clipPathUnits="userSpaceOnUse"><path d="M2541.02 903l-10 5.77 166.41 96.07c11.08.93 21.75 3.11 31.35 6.56L2541.02 903"/></clipPath><linearGradient id="aK" spreadMethod="pad" gradientTransform="matrix(609.644 0 0 -609.644 2227.6 961.83)" gradientUnits="userSpaceOnUse" y2="0" x2="1" y1="0" x1="0"><stop offset="0" stop-color="#018e94"/><stop offset="1" stop-color="#01426b"/></linearGradient><clipPath id="aL" clipPathUnits="userSpaceOnUse"><path d="M2464.77 947l-10 5.77 121.29 70.03 5-8.65L2464.77 947"/></clipPath><linearGradient id="aM" spreadMethod="pad" gradientTransform="matrix(105.83 -81.5902 -158.058 -73.5104 2402.45 1045.74)" gradientUnits="userSpaceOnUse" y2="0" x2="1" y1="0" x1="0"><stop offset="0" stop-color="#ad713f"/><stop offset="1" stop-color="#ad4771"/></linearGradient><clipPath id="aN" clipPathUnits="userSpaceOnUse"><path d="M2314.09 1033.96l-95.28 54.99 140.34 81.02 95.28-54.99-140.34-81.02"/></clipPath><radialGradient id="aO" spreadMethod="pad" gradientTransform="scale(5489.5 -5489.5) rotate(37.301 .938 -.309)" gradientUnits="userSpaceOnUse" r="1" cy="0" cx="0" fy="0" fx="0"><stop offset="0" stop-color="#18303e"/><stop offset="1" stop-color="#100e1f"/></radialGradient><clipPath id="aP" clipPathUnits="userSpaceOnUse"><path d="M1573.57 1461.33l-270.41 156.05c-19.32 11.16-28.56 25.65-28.13 39.66l-.35.2v45.78l183.66-106.04 8.66 5-192.32 111.04v18.58l.43-.19c.68 11.78 8.07 23.18 23.11 31.87l16.43 9.49 399.25-230.42-140.33-81.02"/></clipPath><radialGradient id="aQ" spreadMethod="pad" gradientTransform="scale(5489.5 -5489.5) rotate(37.301 .938 -.309)" gradientUnits="userSpaceOnUse" r="1" cy="0" cx="0" fy="0" fx="0"><stop offset="0" stop-color="#23475c"/><stop offset="1" stop-color="#17142d"/></radialGradient><clipPath id="aR" clipPathUnits="userSpaceOnUse"><path d="M1458.34 1596.98l-183.66 106.04v10L1467 1601.98l-8.66-5"/></clipPath><linearGradient id="aS" spreadMethod="pad" gradientTransform="matrix(-57.1913 -459.901 -796.572 -33.0194 1240.14 1681.24)" gradientUnits="userSpaceOnUse" y2="0" x2="1" y1="0" x1="0"><stop offset="0" stop-color="#ad713f"/><stop offset="1" stop-color="#ad4771"/></linearGradient><clipPath id="aT" clipPathUnits="userSpaceOnUse"><path d="M2525.96 1147.28l-68.3 39.27 188.91 109.07-18.47 10.66 390.38 225.52 86.6-49.98-579.12-334.54m-749.62 431.12l-349.24 200.85 1.9 1.1 84.85 49.01 349.26-200.87-86.77-50.09"/></clipPath><linearGradient id="aU" spreadMethod="pad" gradientTransform="scale(1174.4 -1174.4) rotate(35.38 3.397 1.53)" gradientUnits="userSpaceOnUse" y2="0" x2="1" y1="0" x1="0"><stop offset="0" stop-color="#26b5a4"/><stop offset="1" stop-color="#4161ad"/></linearGradient><clipPath id="aV" clipPathUnits="userSpaceOnUse"><path d="M3018.48 1531.8l-86.59 49.97 86.59-49.97"/></clipPath><radialGradient id="aW" spreadMethod="pad" gradientTransform="scale(5489.5 -5489.5) rotate(37.301 .938 -.309)" gradientUnits="userSpaceOnUse" r="1" cy="0" cx="0" fy="0" fx="0"><stop offset="0" stop-color="#316380"/><stop offset="1" stop-color="#201c3f"/></radialGradient><clipPath id="aX" clipPathUnits="userSpaceOnUse"><path d="M2628.1 1306.28l-16.43 9.48 34.9 20.15-70.17 40.51 355.48 205.35 86.59-49.97-390.37-225.52"/></clipPath><linearGradient id="aY" spreadMethod="pad" gradientTransform="scale(1174.4 -1174.4) rotate(35.38 3.397 1.53)" gradientUnits="userSpaceOnUse" y2="0" x2="1" y1="0" x1="0"><stop offset="0" stop-color="#24ac9c"/><stop offset="1" stop-color="#3e5ca4"/></linearGradient><clipPath id="aZ" clipPathUnits="userSpaceOnUse"><path d="M1863.11 1628.49l-349.26 200.87 86.75 50.11 349.28-200.88-86.77-50.1"/></clipPath><linearGradient id="ba" spreadMethod="pad" gradientTransform="scale(1174.4 -1174.4) rotate(35.38 3.397 1.53)" gradientUnits="userSpaceOnUse" y2="0" x2="1" y1="0" x1="0"><stop offset="0" stop-color="#24ac9c"/><stop offset="1" stop-color="#3e5ca4"/></linearGradient><clipPath id="bb" clipPathUnits="userSpaceOnUse"><path d="M3130.45 1954.16l.26.01 28.88 2.17c.29 2.22.77 4.45 1.5 6.68.73 2.24 1.66 4.43 2.78 6.56l-25.07 7.87c-1.37 3.16-3.7 6.18-6.92 8.89l.04.13 5.35 16.53c-3.56.85-7.08 1.8-10.54 2.89-3.47 1.09-6.77 2.28-9.93 3.55l-20.71-11.32c-5.69.23-11.36-.15-16.77-1.07l-.23.07-25.58 8.05c-2.49-1.7-5.16-3.33-8.02-4.9-2.86-1.56-5.84-3.01-8.91-4.36l12.25-14.87c-2.17-3.1-3.29-6.33-3.43-9.54l-.19-.09-21.15-11.57c2.02-1.89 3.9-3.86 5.59-5.91 1.7-2.06 3.15-4.14 4.42-6.24l28.29 2.13c2.16-1.05 4.52-2 7.05-2.83 2.47-.81 5.01-1.47 7.6-1.99l.1-.15 12.51-15.18c3.74.53 7.57.95 11.47 1.24 3.91.3 7.8.45 11.64.5l5.24 16.18c4.72 1.7 8.96 3.91 12.48 6.57z"/></clipPath><linearGradient id="bc" spreadMethod="pad" gradientTransform="scale(387.701 -387.701) rotate(45 10.306 6.635)" gradientUnits="userSpaceOnUse" y2="0" x2="1" y1="0" x1="0"><stop offset="0" stop-color="#ffa75d"/><stop offset="1" stop-color="#ff69a6"/></linearGradient><clipPath id="bd" clipPathUnits="userSpaceOnUse"><path d="M2928.31 1918.14c-3.16 1.84-3.17 4.8 0 6.64 3.17 1.83 8.32 1.83 11.49 0 3.18-1.83 3.18-4.8 0-6.64-3.17-1.83-8.32-1.83-11.49 0zm70.77-34.22c1.83 1.06 3.54 2.15 5.18 3.27l28.56-2.61a56.16 56.16 0 0 0 4.72 6.16c1.79 2.03 3.76 3.97 5.87 5.83l-20.28 11.71c1.35 3.04 2.21 6.15 2.61 9.27l25.77 7.59c-1 2.14-1.84 4.34-2.46 6.58-.61 2.25-.99 4.49-1.18 6.71l-28.31 2.59c-1.98 2.89-4.43 5.7-7.33 8.4l13.11 14.87c-3 1.39-5.91 2.89-8.7 4.5a94.82 94.82 0 0 0-7.78 5.02l-25.55-7.52c-4.65 1.71-9.49 3.16-14.49 4.33l-4.51 16.47c-3.85.11-7.73.33-11.61.68-3.9.36-7.7.84-11.42 1.42l-13.03-14.76c-5.42-.19-10.81-.65-16.11-1.4l-20.43 11.79c-3.21-1.22-6.57-2.35-10.09-3.39-3.51-1.03-7.08-1.93-10.67-2.72l4.48-16.36c-2.2-1.05-4.34-2.16-6.4-3.35a82.81 82.81 0 0 1-5.16-3.26l-28.57 2.61a55.193 55.193 0 0 0-4.71-6.17c-1.8-2.02-3.76-3.96-5.87-5.82l20.27-11.71c-1.35-3.05-2.22-6.16-2.61-9.28l-25.77-7.58c1.01-2.15 1.85-4.34 2.46-6.59.62-2.24 1-4.48 1.18-6.71l28.31-2.59c1.99-2.89 4.44-5.7 7.34-8.4l-13.12-14.87c3-1.39 5.91-2.88 8.69-4.49 2.8-1.61 5.38-3.29 7.79-5.02l25.55 7.51c4.65-1.7 9.5-3.15 14.49-4.33l4.52-16.47c3.85-.1 7.72-.32 11.61-.68 3.9-.36 7.7-.84 11.42-1.42l13.02 14.76c5.42.2 10.81.66 16.12 1.4l20.42-11.78c3.22 1.21 6.58 2.35 10.08 3.38 3.52 1.03 7.08 1.93 10.69 2.72l-4.48 16.36c2.19 1.05 4.33 2.16 6.38 3.35z"/></clipPath><linearGradient id="be" spreadMethod="pad" gradientTransform="scale(320.6 -320.6) rotate(38.03 13.493 9.642)" gradientUnits="userSpaceOnUse" y2="0" x2="1" y1="0" x1="0"><stop offset="0" stop-color="#ffa75d"/><stop offset="1" stop-color="#ff69a6"/></linearGradient><clipPath id="bf" clipPathUnits="userSpaceOnUse"><path d="M3111.29 1805.67l-17.33 10 8.67 5 17.31-10zm34.64-20l-17.33 10 8.67 5 17.32-10zm34.64-20l-17.33 10 8.66 5 17.33-10zm34.64-20l-17.32 10 8.65 5 17.33-10zm34.63-20.01l-17.31 10 8.66 5.01 17.32-10.01zm34.65-20l-17.32 10 8.66 5 17.32-10zm31.75-18.33l-14.43 8.33 8.66 5 18.76-10.83-7.23-4.17-4.32 2.5zm-28.88-21.67l-8.66 5 17.33 10 8.66-5zm-34.64-20l-8.66 5 17.33 10 8.66-5zm-34.63-20l-8.67 5 17.33 10 8.65-5zm-34.64-20l-8.66 5 17.31 10 8.66-5zm-34.65-20l-8.66 5 17.32 10 8.66-5zm-31.75-18.33l-8.66 5 14.43 8.33 8.66-5z"/></clipPath><linearGradient id="bg" spreadMethod="pad" gradientTransform="matrix(3.33333 -390 -390 -3.33333 3210.7 1857.04)" gradientUnits="userSpaceOnUse" y2="0" x2="1" y1="0" x1="0"><stop offset="0" stop-color="#26b5a4"/><stop offset="1" stop-color="#4161ad"/></linearGradient><clipPath id="bh" clipPathUnits="userSpaceOnUse"><path d="M1105.49 1605.53l-111.174 64.19 111.174 64.18 111.18-64.18z"/></clipPath><linearGradient id="bi" spreadMethod="pad" gradientTransform="matrix(-165 -153.333 -153.333 165 1185.45 1744.02)" gradientUnits="userSpaceOnUse" y2="0" x2="1" y1="0" x1="0"><stop offset="0" stop-color="#4cb5a9"/><stop offset="1" stop-color="#556fad"/></linearGradient><clipPath id="bj" clipPathUnits="userSpaceOnUse"><path d="M1105.49 1405.55l-150.556 86.93 150.556 86.91 150.56-86.93-150.56-86.91"/></clipPath><radialGradient id="bk" spreadMethod="pad" gradientTransform="scale(5489.5 -5489.5) rotate(37.301 .938 -.309)" gradientUnits="userSpaceOnUse" r="1" cy="0" cx="0" fy="0" fx="0"><stop offset="0" stop-color="#23475c"/><stop offset="1" stop-color="#17142d"/></radialGradient><clipPath id="bl" clipPathUnits="userSpaceOnUse"><path d="M994.316 1669.72v-122.7l111.174-64.19v122.7z"/></clipPath><linearGradient id="bm" spreadMethod="pad" gradientTransform="scale(198.3161 -198.3161) rotate(74.503 8.145 -.85)" gradientUnits="userSpaceOnUse" y2="0" x2="1" y1="0" x1="0"><stop offset="0" stop-color="#26b5a4"/><stop offset="1" stop-color="#4161ad"/></linearGradient><clipPath id="bn" clipPathUnits="userSpaceOnUse"><path d="M1216.67 1669.72v-122.7l-111.18-64.19v122.7z"/></clipPath><linearGradient id="bo" spreadMethod="pad" gradientTransform="scale(219.034) rotate(-90 6.47 1.169)" gradientUnits="userSpaceOnUse" y2="0" x2="1" y1="0" x1="0"><stop offset="0" stop-color="#26b5a4"/><stop offset="1" stop-color="#4161ad"/></linearGradient><clipPath id="bp" clipPathUnits="userSpaceOnUse"><path d="M2931.89 1581.77l-411.02 237.2 173.24 100.02 134.84-77.82-12.34-3.63c1.01-2.14 1.85-4.34 2.46-6.58.62-2.25 1-4.48 1.18-6.71l28.31-2.59c1.99-2.89 4.44-5.7 7.34-8.4l-13.12-14.87c3-1.4 5.91-2.89 8.69-4.5 2.8-1.61 5.38-3.29 7.79-5.02l25.55 7.52c4.65-1.71 9.5-3.16 14.49-4.33l4.52-16.47c3.85-.11 7.72-.33 11.61-.68 3.9-.36 7.7-.84 11.42-1.43l6.54 7.42 171.69-99.08-173.19-100.05"/></clipPath><radialGradient id="bq" spreadMethod="pad" gradientTransform="scale(5489.5 -5489.5) rotate(37.301 .938 -.309)" gradientUnits="userSpaceOnUse" r="1" cy="0" cx="0" fy="0" fx="0"><stop offset="0" stop-color="#5f88a0"/><stop offset="1" stop-color="#514e6a"/></radialGradient><clipPath id="br" clipPathUnits="userSpaceOnUse"><path d="M2926.85 1773.48c-3.72.59-7.52 1.07-11.42 1.43-3.89.35-7.76.57-11.61.68l-4.52 16.47a124.12 124.12 0 0 0-14.49 4.33l-25.55-7.52a91.737 91.737 0 0 1-7.79 5.02c-2.78 1.61-5.69 3.1-8.69 4.5l13.12 14.87c-2.9 2.7-5.35 5.51-7.34 8.4l-28.31 2.59c-.18 2.23-.56 4.46-1.18 6.71-.61 2.24-1.45 4.44-2.46 6.58l12.34 3.63 104.44-60.27-6.54-7.42"/></clipPath><radialGradient id="bs" spreadMethod="pad" gradientTransform="scale(5489.5 -5489.5) rotate(37.301 .938 -.309)" gradientUnits="userSpaceOnUse" r="1" cy="0" cx="0" fy="0" fx="0"><stop offset="0" stop-color="#587a8e"/><stop offset="1" stop-color="#4c4a61"/></radialGradient><clipPath id="bt" clipPathUnits="userSpaceOnUse"><path d="M2005.89 2116.18l-84.37 48.68-39.23 22.64c-18.67 10.77-42.75 16.29-66.25 16.43l192.07 110.95 171.01-98.69-173.23-100.01"/></clipPath><radialGradient id="bu" spreadMethod="pad" gradientTransform="scale(5489.5 -5489.5) rotate(37.301 .938 -.309)" gradientUnits="userSpaceOnUse" r="1" cy="0" cx="0" fy="0" fx="0"><stop offset="0" stop-color="#5f88a0"/><stop offset="1" stop-color="#514e6a"/></radialGradient><clipPath id="bv" clipPathUnits="userSpaceOnUse"><path d="M1501.88 1943.46c-6.4 0-13.15 1.56-18.43 4.61-9.64 5.56-10.7 13.97-2.36 18.78 3.78 2.18 8.84 3.25 14.13 3.25 6.39 0 13.14-1.56 18.4-4.6 9.66-5.56 10.71-13.97 2.38-18.79-3.78-2.18-8.83-3.25-14.12-3.25"/></clipPath><linearGradient id="bw" spreadMethod="pad" gradientTransform="matrix(43.75 -35 -35 -43.75 1485.51 1967.2)" gradientUnits="userSpaceOnUse" y2="0" x2="1" y1="0" x1="0"><stop offset="0" stop-color="#54c5b7"/><stop offset="1" stop-color="#6982be"/></linearGradient><clipPath id="bx" clipPathUnits="userSpaceOnUse"><path d="M2931.89 1581.77l-411.02 237.2 411.02-237.2m-926.01 534.4l-84.36 48.69 84.37-48.68-.01-.01"/></clipPath><radialGradient id="by" spreadMethod="pad" gradientTransform="scale(5489.5 -5489.5) rotate(37.301 .938 -.309)" gradientUnits="userSpaceOnUse" r="1" cy="0" cx="0" fy="0" fx="0"><stop offset="0" stop-color="#5d849b"/><stop offset="1" stop-color="#4f4c68"/></radialGradient><clipPath id="bz" clipPathUnits="userSpaceOnUse"><path d="M2576.4 1376.42l-370.18 213.73-204.77 118.22-51.57-29.78-349.28 200.88 339.56 196.16 32.39-18.7-34.64-20 514.87-297.26 102.74 59.3 376.36-217.2-355.48-205.35"/></clipPath><linearGradient id="bA" spreadMethod="pad" gradientTransform="scale(1174.4 -1174.4) rotate(35.38 3.397 1.53)" gradientUnits="userSpaceOnUse" y2="0" x2="1" y1="0" x1="0"><stop offset="0" stop-color="#52beb1"/><stop offset="1" stop-color="#677fb7"/></linearGradient><clipPath id="bB" clipPathUnits="userSpaceOnUse"><path d="M2452.78 1739.67l-514.87 297.26 34.64 20 480.23-277.27 68.09 39.31 34.65-20-102.74-59.3"/></clipPath><linearGradient id="bC" spreadMethod="pad" gradientTransform="scale(1174.4 -1174.4) rotate(35.38 3.397 1.53)" gradientUnits="userSpaceOnUse" y2="0" x2="1" y1="0" x1="0"><stop offset="0" stop-color="#4cafa3"/><stop offset="1" stop-color="#5f75a9"/></linearGradient><clipPath id="bD" clipPathUnits="userSpaceOnUse"><path d="M2694.11 1918.99l-514.99 297.2 152.39 87.98 265.47-153.26-93.86-54.19 28.85-16.66-34.95-20.17 220.56-127.34-23.47-13.56"/></clipPath><radialGradient id="bE" spreadMethod="pad" gradientTransform="scale(5489.5 -5489.5) rotate(37.301 .938 -.309)" gradientUnits="userSpaceOnUse" r="1" cy="0" cx="0" fy="0" fx="0"><stop offset="0" stop-color="#5f88a0"/><stop offset="1" stop-color="#514e6a"/></radialGradient><clipPath id="bF" clipPathUnits="userSpaceOnUse"><path d="M2717.58 1932.55l-220.56 127.34 34.95 20.17 220.56-127.34-34.95-20.17"/></clipPath><radialGradient id="bG" spreadMethod="pad" gradientTransform="scale(5489.5 -5489.5) rotate(37.301 .938 -.309)" gradientUnits="userSpaceOnUse" r="1" cy="0" cx="0" fy="0" fx="0"><stop offset="0" stop-color="#5c8298"/><stop offset="1" stop-color="#4e4c66"/></radialGradient><clipPath id="bH" clipPathUnits="userSpaceOnUse"><path d="M2531.97 2080.06l-28.85 16.66 93.86 54.19 28.84-16.66-93.85-54.19"/></clipPath><radialGradient id="bI" spreadMethod="pad" gradientTransform="scale(5489.5 -5489.5) rotate(37.301 .938 -.309)" gradientUnits="userSpaceOnUse" r="1" cy="0" cx="0" fy="0" fx="0"><stop offset="0" stop-color="#569db4"/><stop offset="1" stop-color="#4b708a"/></radialGradient><clipPath id="bJ" clipPathUnits="userSpaceOnUse"><path d="M2752.53 1952.72l-220.56 127.34 93.85 54.19 6.93-4c-3.05-1.76-3.05-4.62 0-6.38l20.7-11.95c1.53-.88 3.53-1.32 5.52-1.32 2 0 4 .44 5.53 1.32l6.9-3.98c-3.05-1.76-3.05-4.62 0-6.38l154.58-89.24c1.52-.88 3.52-1.32 5.52-1.32 2 0 4 .44 5.52 1.32l9.37-5.41-93.86-54.19m-53.88 118.49c-1.99 0-3.99-.44-5.52-1.32-3.05-1.76-3.05-4.62 0-6.38l96.97-55.98c1.52-.88 3.52-1.32 5.51-1.32 2 0 4 .44 5.52 1.32 3.05 1.76 3.05 4.62 0 6.38l-96.95 55.98c-1.53.88-3.53 1.32-5.53 1.32m-54.17 5.78c-2 0-3.99-.44-5.52-1.33-3.05-1.75-3.05-4.61 0-6.37l92.47-53.39c1.53-.88 3.53-1.32 5.53-1.32 1.99 0 3.99.44 5.52 1.32 3.05 1.76 3.05 4.61 0 6.38l-92.48 53.38c-1.52.89-3.52 1.33-5.52 1.33m-14.49 33.86c-2 0-4-.44-5.52-1.32-3.05-1.76-3.05-4.61 0-6.38l50.72-29.28c1.53-.88 3.52-1.32 5.52-1.32 2 0 4 .44 5.53 1.32 3.04 1.76 3.04 4.62 0 6.37l-50.73 29.29c-1.52.88-3.52 1.32-5.52 1.32"/></clipPath><radialGradient id="bK" spreadMethod="pad" gradientTransform="scale(5489.5 -5489.5) rotate(37.301 .938 -.309)" gradientUnits="userSpaceOnUse" r="1" cy="0" cx="0" fy="0" fx="0"><stop offset="0" stop-color="#5499ae"/><stop offset="1" stop-color="#496e86"/></radialGradient><clipPath id="bL" clipPathUnits="userSpaceOnUse"><path d="M2520.87 1818.97l-514.98 297.21 173.23 100.01 514.99-297.2-173.24-100.02"/></clipPath><radialGradient id="bM" spreadMethod="pad" gradientTransform="scale(5489.5 -5489.5) rotate(37.301 .938 -.309)" gradientUnits="userSpaceOnUse" r="1" cy="0" cx="0" fy="0" fx="0"><stop offset="0" stop-color="#81a1b4"/><stop offset="1" stop-color="#76738a"/></radialGradient><clipPath id="bN" clipPathUnits="userSpaceOnUse"><path d="M2520.87 1818.97l-514.99 297.2.01.01 514.98-297.21"/></clipPath><radialGradient id="bO" spreadMethod="pad" gradientTransform="scale(5489.5 -5489.5) rotate(37.301 .938 -.309)" gradientUnits="userSpaceOnUse" r="1" cy="0" cx="0" fy="0" fx="0"><stop offset="0" stop-color="#7f9eb0"/><stop offset="1" stop-color="#747288"/></radialGradient><clipPath id="bP" clipPathUnits="userSpaceOnUse"><path d="M1972.55 2056.93l-32.39 18.7 67.95 39.25 32.42-18.7-67.98-39.25"/></clipPath><linearGradient id="bQ" spreadMethod="pad" gradientTransform="scale(1174.4 -1174.4) rotate(35.38 3.397 1.53)" gradientUnits="userSpaceOnUse" y2="0" x2="1" y1="0" x1="0"><stop offset="0" stop-color="#77ccc2"/><stop offset="1" stop-color="#879ac6"/></linearGradient><clipPath id="bR" clipPathUnits="userSpaceOnUse"><path d="M2452.78 1779.66l-480.23 277.27 67.98 39.25 480.34-277.21-68.09-39.31"/></clipPath><linearGradient id="bS" spreadMethod="pad" gradientTransform="scale(1174.4 -1174.4) rotate(35.38 3.397 1.53)" gradientUnits="userSpaceOnUse" y2="0" x2="1" y1="0" x1="0"><stop offset="0" stop-color="#72c0b6"/><stop offset="1" stop-color="#8192bb"/></linearGradient><clipPath id="bT" clipPathUnits="userSpaceOnUse"><path d="M2463.82 2195.68l-222.37-128.38-84.5 48.78 222.37 128.39z"/></clipPath><linearGradient id="bU" spreadMethod="pad" gradientTransform="scale(740.017 -740.017) rotate(45 5.162 2.11)" gradientUnits="userSpaceOnUse" y2="0" x2="1" y1="0" x1="0"><stop offset="0" stop-color="#26b5a4"/><stop offset="1" stop-color="#4161ad"/></linearGradient><clipPath id="bV" clipPathUnits="userSpaceOnUse"><path d="M2598.36 2118.01l-222.37-128.39-84.51 48.79 222.38 128.39z"/></clipPath><linearGradient id="bW" spreadMethod="pad" gradientTransform="scale(740.017 -740.017) rotate(45 5.227 2.136)" gradientUnits="userSpaceOnUse" y2="0" x2="1" y1="0" x1="0"><stop offset="0" stop-color="#26b5a4"/><stop offset="1" stop-color="#4161ad"/></linearGradient><clipPath id="bX" clipPathUnits="userSpaceOnUse"><path d="M2732.9 2040.34l-222.37-128.39-84.51 48.79 222.38 128.38z"/></clipPath><linearGradient id="bY" spreadMethod="pad" gradientTransform="scale(740.017 -740.017) rotate(45 5.293 2.164)" gradientUnits="userSpaceOnUse" y2="0" x2="1" y1="0" x1="0"><stop offset="0" stop-color="#26b5a4"/><stop offset="1" stop-color="#4161ad"/></linearGradient><clipPath id="bZ" clipPathUnits="userSpaceOnUse"><path d="M2457.66 1186.55l-34.96 20.11 86.77 50.1 16.49-9.48 102.14 59 18.47-10.66-188.91-109.07"/></clipPath><linearGradient id="ca" spreadMethod="pad" gradientTransform="scale(1174.4 -1174.4) rotate(35.38 3.397 1.53)" gradientUnits="userSpaceOnUse" y2="0" x2="1" y1="0" x1="0"><stop offset="0" stop-color="#1a7b6f"/><stop offset="1" stop-color="#2c4275"/></linearGradient><clipPath id="cb" clipPathUnits="userSpaceOnUse"><path d="M2525.96 1247.28l-16.49 9.48 102.2 59 16.43-9.48-102.14-59"/></clipPath><linearGradient id="cc" spreadMethod="pad" gradientTransform="scale(1174.4 -1174.4) rotate(35.38 3.397 1.53)" gradientUnits="userSpaceOnUse" y2="0" x2="1" y1="0" x1="0"><stop offset="0" stop-color="#18756a"/><stop offset="1" stop-color="#2a3e6f"/></linearGradient><clipPath id="cd" clipPathUnits="userSpaceOnUse"><path d="M1724.56 1312.05l-204.77 118.22 481.66 278.1 204.77-118.22-481.66-278.1m8.36 184.6c-29.75 0-59.5-6.54-82.14-19.62-45.28-26.16-45.25-68.7.05-94.83 22.64-13.07 52.37-19.6 82.11-19.6 29.75 0 59.5 6.54 82.14 19.62 45.27 26.16 45.25 68.7-.05 94.83-22.64 13.07-52.38 19.6-82.11 19.6"/></clipPath><linearGradient id="ce" spreadMethod="pad" gradientTransform="matrix(713.011 115.893 99.8981 -399.195 1587.23 1465.38)" gradientUnits="userSpaceOnUse" y2="0" x2="1" y1="0" x1="0"><stop offset="0" stop-color="#ffa75d"/><stop offset="1" stop-color="#ff69a6"/></linearGradient><clipPath id="cf" clipPathUnits="userSpaceOnUse"><path d="M1549.38 1587.01l-5 8.65 11.3 6.53 5-8.65zm-368.73-19.82l-17.32 10 5 8.65 17.32-10zm334.1-.18l-5 8.65 17.32 10 5-8.65zm-299.45-19.82l-17.33 10 5 8.65 17.33-10zm264.8-.18l-5 8.65 17.32 10 5-8.65zm-230.16-19.82l-17.32 10 5 8.65 17.32-10zm195.52-.18l-5 8.65 17.32 10 5-8.65zm-160.88-19.82l-17.32 10 5 8.65 17.32-10zm126.24-.18l-5 8.65 17.32 10 5-8.65zm-91.6-19.82l-17.32 10 5 8.65 17.32-10zm56.96-.18l-5 8.65 17.32 10 5-8.65zm-28.33-16.36l-11.31 6.54 5 8.65 6.31-3.64 6.01 3.46 5-8.65z"/></clipPath><linearGradient id="cg" spreadMethod="pad" gradientTransform="matrix(650 -295 -295 -650 1052.15 1717.79)" gradientUnits="userSpaceOnUse" y2="0" x2="1" y1="0" x1="0"><stop offset="0" stop-color="#8fd9d0"/><stop offset=".005" stop-color="#8fd9d0"/><stop offset="1" stop-color="#7e8cad"/></linearGradient></defs><g clip-path="url(#a)" transform="matrix(.13333 0 0 -.13333 0 466.667)"><path d="M4500 0H0v3500h4500V0M2232.6 968.582l-5-8.652 206.02-118.942L2541.02 903l76.7-44.27c18.89-10.902 43.36-16.421 67.15-16.421 21.46-.008 42.36 4.492 58.13 13.601l458.8 265.04c15.84 9.15 23.37 21.32 23.28 33.77l.24.13v73.54l-.26-.3c0 13.74-9.32 27.85-28.21 38.76l-11.48 6.62 16.43 9.49c32.78 18.94 31.02 50.75-3.57 71.51l3.57 2.05c33.22 19.2 30.97 51.6-4.95 72.34l-178.37 102.94-86.59 49.97 173.19 100.05-171.69 99.08 6.48 7.34c5.42.2 10.81.66 16.12 1.41l20.42-11.79c3.22 1.22 6.58 2.36 10.08 3.38 3.52 1.04 7.08 1.94 10.69 2.73l-3.49 12.71 16.79 9.69 22.34-2.04c1.37 2.08 2.93 4.14 4.72 6.16 1.79 2.03 3.76 3.97 5.87 5.83l-7.85 4.53 52.59 30.36 1.47-1.79c3.74.53 7.57.95 11.47 1.24 3.91.3 7.8.46 11.64.51l5.24 16.17c4.72 1.71 8.96 3.91 12.48 6.57l.26.02 28.88 2.17c.29 2.22.77 4.45 1.5 6.68.73 2.24 1.66 4.42 2.78 6.55l-6.28 1.97 442.31 255.37-28.84 16.66 34.95 20.18-476.28 274.98-532.75-307.58-265.47 153.26-152.39-87.98-171.01 98.69-192.07-110.95h-.88c-21.47 0-42.37-4.5-58.14-13.61l-458.8-265.03c-32.81-18.95-31.06-50.74 3.57-71.51l-3.57-2.06c-33.24-19.21-31.01-51.58 4.94-72.33l11.49-6.62-16.43-9.49c-15.04-8.69-22.43-20.09-23.11-31.87l-.43.19v-18.58l-233.23 134.65 446.52 257.8-8.66 5-455.18-262.8 250.55-144.65v-45.78l.35-.2c-.43-14.01 8.81-28.5 28.13-39.66l270.41-156.05-53.78-31.06 95.26-55-95.26-55 645.11-372.45 149.19 86.14 140.68-81.19-17.52-10.11-114.42 66.05-5-8.65 119.42-68.951L2464.77 947l66.25-38.23-97.4-56.239-201.02 116.051M1105.49 1579.39l-150.556-86.91 150.556-86.93 150.56 86.91-150.56 86.93m84.28 739.23l-131.21-75.75 281.43-162.48 281.44 162.48-131.21 75.75 137.3 79.28-19.14 11.05 19.14 11.05v8.17l-60.6 34.99 10.93 6.31-8.66 5-10.93-6.31-218.27 126.02-287.52-166.01 7.07-4.09-7.07 4.09V2420l19.14-11.05-19.14-11.05 137.3-79.28m413.27 175.39l-16.93-9.77 8.66-5 16.92 9.77-8.65 5m33.84 19.54l-16.92-9.76 8.66-5.01 16.92 9.77-8.66 5m33.85 19.54l-16.93-9.77 8.67-4.99 16.92 9.77-8.66 4.99m33.85 19.55l-16.93-9.77 8.66-5 16.92 9.77-8.65 5m1124.37-711.47l-134.84 77.82 23.47 13.56 110.17-63.61c-.98-.96-1.99-1.9-3.03-2.83l20.27-11.71c-1.35-3.05-2.22-6.15-2.61-9.27l-13.43-3.96" fill="#ffffff"/></g><g clip-path="url(#c)" transform="matrix(.13333 0 0 -.13333 0 466.667)"><path d="M2433.62 840.988L2227.6 959.93l5 8.652 201.02-116.051 97.4 56.239 10-5.77-107.4-62.012" fill="url(#d)"/></g><g clip-path="url(#e)" transform="matrix(.13333 0 0 -.13333 0 466.667)"><path d="M2437.25 931.109l-119.42 68.951 5 8.65 114.42-66.05 17.52 10.11 10-5.77-27.52-15.891" fill="url(#f)"/></g><g clip-path="url(#g)" transform="matrix(.13333 0 0 -.13333 0 466.667)"><path d="M1274.68 1703.02l-250.55 144.65 455.18 262.8 8.66-5-446.52-257.8 233.23-134.65v-10" fill="url(#h)"/></g><g clip-path="url(#i)" transform="matrix(.13333 0 0 -.13333 0 466.667)"><path d="M2993.69 1796.68l-1 3.64c2.2 1.06 4.34 2.17 6.39 3.36 1.83 1.05 3.54 2.14 5.18 3.26l6.22-.57-16.79-9.69m41.87 24.17l-12.43 7.18c1.35 3.05 2.21 6.16 2.61 9.28l25.77 7.58c-1 2.15-1.84 4.34-2.46 6.59-.61 2.25-.99 4.48-1.18 6.7l-4.61.43 18.98 10.96h.12c2.16-1.04 4.51-1.99 7.05-2.83 2.48-.8 5.01-1.46 7.6-1.99l.1-.14 11.04-13.4-52.59-30.36m-101.5 15.68c-2.08 0-4.16.46-5.75 1.37-3.16 1.83-3.17 4.8 0 6.64 1.59.91 3.67 1.37 5.75 1.37s4.16-.46 5.74-1.37c3.18-1.84 3.18-4.81 0-6.64-1.58-.91-3.66-1.37-5.74-1.37m-106.31 32.41l-110.17 63.61 34.95 20.17 122.58-70.77c-2.09-1-4.12-2.06-6.08-3.19a82.875 82.875 0 0 1-5.16-3.27l-28.57 2.62a54.293 54.293 0 0 0-4.71-6.17c-.91-1.02-1.86-2.02-2.84-3m329.84 22.36l-18.79 5.91c-1.37 3.16-3.7 6.17-6.92 8.88l.04.14 1.42 4.38 437.72 252.72 28.84-16.66-442.31-255.37" fill="url(#j)"/></g><g clip-path="url(#k)" transform="matrix(.13333 0 0 -.13333 0 466.667)"><path d="M2625.82 2134.25l-28.84 16.66 532.75 307.58 476.28-274.98-34.95-20.18-447.44 258.32-497.8-287.4" fill="url(#l)"/></g><g clip-path="url(#m)" transform="matrix(.13333 0 0 -.13333 0 466.667)"><path d="M3043.26 1858.61l-23.7 2.16c-1.98 2.9-4.43 5.71-7.33 8.41l13.11 14.87c-3 1.39-5.91 2.88-8.7 4.49a94.82 94.82 0 0 0-7.78 5.02l-25.55-7.51c-4.65 1.7-9.49 3.15-14.49 4.33l-4.51 16.47c-3.85.1-7.73.32-11.61.68-3.9.36-7.7.84-11.42 1.42l-13.03-14.76c-5.42-.2-10.81-.65-16.11-1.41l-20.43 11.8a135.46 135.46 0 0 0-10.09-3.39 154.3 154.3 0 0 0-10.67-2.72l4.48-16.36c-.11-.05-.22-.1-.32-.16l-122.58 70.77 93.86 54.19-9.37 5.41c3.05 1.76 3.05 4.61 0 6.37l-154.58 89.25c-1.53.88-3.53 1.32-5.52 1.32-2 0-4-.44-5.52-1.32l-6.9 3.98c3.04 1.76 3.04 4.62 0 6.38l-20.71 11.95c-1.52.88-3.52 1.32-5.52 1.32-2 0-3.99-.44-5.52-1.32l-6.93 4 497.8 287.4 447.44-258.32-437.72-252.72 3.93 12.15c-3.56.84-7.08 1.8-10.54 2.89-3.47 1.09-6.77 2.27-9.93 3.54l-20.71-11.31c-1.07.04-2.15.06-3.22.06-4.6 0-9.16-.39-13.55-1.14l-.23.08-25.58 8.04a99.72 99.72 0 0 0-8.02-4.9c-2.86-1.56-5.84-3-8.91-4.35l12.25-14.87c-2.17-3.1-3.29-6.34-3.43-9.54l-.19-.1-21.15-11.56c2.02-1.89 3.9-3.86 5.59-5.92 1.7-2.05 3.15-4.13 4.42-6.23l28.17 2.12-18.98-10.96m-125.82 161.46l-85.58-49.41 85.58-49.4 85.57 49.4-85.57 49.41m368.25 20.07l-154.58-89.25 16.56-9.56 154.59 89.25-16.57 9.56m107.65 97.22l-292.6-168.94 16.56-9.56 292.6 168.93-16.56 9.57m-168.38-62.16l-154.58-89.24 16.56-9.57 154.58 89.25-16.56 9.56m-179.17 18.98l-85.57-49.4 85.57-49.41 85.58 49.41-85.58 49.4m128.36 74.11l-85.57-49.41 85.57-49.4 85.58 49.4-85.58 49.41m318.56-8.62l-138.01-79.68 16.56-9.57 138.02 79.69-16.57 9.56m-190.2 82.72l-85.58-49.4 85.58-49.41 85.57 49.41-85.57 49.4" fill="url(#n)"/></g><g clip-path="url(#o)" transform="matrix(.13333 0 0 -.13333 0 466.667)"><path d="M2917.44 1921.26l-85.58 49.4 85.58 49.41 85.57-49.41-85.57-49.4" fill="url(#p)"/></g><path d="M365.664 197.88c-.407.235-1.067.235-1.473 0l-12.33-7.119c-.406-.234-.406-.616 0-.849.407-.236 1.066-.236 1.472 0l12.331 7.117c.407.236.407.616 0 .851M373.484 198.996c-.405.235-1.065.235-1.47 0l-12.93-7.464c-.407-.235-.407-.616 0-.85.407-.235 1.067-.235 1.473 0l12.927 7.463c.407.235.407.616 0 .851M358.165 190.15c-.408.235-1.066.235-1.473 0l-6.763-3.903c-.406-.236-.406-.616 0-.851.407-.235 1.066-.235 1.472 0l6.764 3.905c.406.234.406.615 0 .85M378.27 198.357c-.407.235-1.067.235-1.473 0l-20.61-11.898c-.407-.235-.407-.616 0-.851.405-.235 1.065-.235 1.472 0l20.61 11.9c.407.235.407.615 0 .85M355.267 185.077c-.408.235-1.067.235-1.474 0l-2.76-1.593c-.406-.235-.406-.616 0-.85.407-.235 1.066-.235 1.472 0l2.762 1.593c.405.234.405.616 0 .85M378.453 195.064c-.406.235-1.065.235-1.473 0l-3.127-1.805c-.406-.235-.406-.616 0-.851s1.064-.235 1.471 0l3.13 1.807c.406.234.406.614 0 .849M372.91 191.864c-.407.235-1.066.235-1.473 0l-14.698-8.487c-.407-.234-.407-.616 0-.849.405-.236 1.065-.236 1.472 0l14.698 8.485c.407.236.407.616 0 .851M375.876 190.177c-.405.235-1.065.235-1.47 0l-5.062-2.922c-.407-.234-.407-.615 0-.85.407-.234 1.067-.234 1.472 0l5.06 2.922c.408.234.408.616 0 .85M368.516 185.927c-.407.236-1.067.236-1.472 0l-1.841-1.063c-.406-.233-.406-.615 0-.85.408-.234 1.066-.234 1.473 0l1.84 1.063c.405.235.405.616 0 .85M376.98 187.415c-.405.234-1.064.234-1.47 0l-5.522-3.188c-.405-.235-.405-.615 0-.85.407-.234 1.065-.234 1.472 0l5.52 3.187c.408.236.408.616 0 .85M388.207 190.496c-.407.235-1.067.235-1.472 0l-17.346-10.015c-.406-.233-.406-.614 0-.849.408-.235 1.067-.235 1.472 0l17.346 10.013c.406.235.406.616 0 .851M368.653 179.207c-.405.234-1.065.234-1.472 0l-2.53-1.46c-.406-.235-.406-.616 0-.851s1.066-.235 1.473 0l2.53 1.461c.406.235.406.615 0 .85M388.39 187.201c-.406.236-1.066.236-1.473 0l-.182-.105c-.407-.235-.407-.616 0-.85.405-.235 1.065-.235 1.472 0l.184.106c.406.235.406.616 0 .85M385.83 185.723c-.407.236-1.066.236-1.473 0l-14.001-8.083c-.407-.235-.407-.615 0-.85.407-.234 1.065-.234 1.472 0l14.001 8.083c.407.235.407.616 0 .85M386.735 182.845c-.407.236-1.067.236-1.474 0l-7.36-4.249c-.406-.235-.406-.615 0-.85.406-.234 1.066-.234 1.472 0l7.362 4.25c.405.235.405.615 0 .85M390.599 181.677c-.406.235-1.067.235-1.472 0l-9.202-5.312c-.406-.234-.406-.616 0-.85.407-.235 1.066-.235 1.472 0l9.202 5.313c.406.233.406.615 0 .85M398.143 182.633c-.406.235-1.064.235-1.471 0l-13.71-7.914c-.407-.235-.407-.616 0-.851.406-.235 1.066-.235 1.471 0l13.71 7.916c.408.235.408.615 0 .85M382.195 173.425c-.407.235-1.066.235-1.472 0l-2.454-1.416c-.408-.234-.408-.616 0-.85.407-.235 1.066-.235 1.472 0l2.454 1.417c.406.233.406.615 0 .85M400.168 180.403c-.407.234-1.065.234-1.473 0l-16.56-9.563c-.408-.235-.408-.616 0-.85.405-.235 1.064-.235 1.47 0l16.563 9.562c.407.235.407.616 0 .85M400.26 177.056c-.405.235-1.065.235-1.472 0l-5.659-3.268c-.406-.233-.406-.615 0-.85.406-.234 1.066-.234 1.472 0l5.659 3.267c.407.235.407.616 0 .851M392.27 172.443c-.407.234-1.066.234-1.471 0l-3.052-1.762c-.407-.236-.407-.616 0-.85.405-.235 1.065-.235 1.472 0l3.05 1.761c.408.236.408.616 0 .85M404.216 175.94c-.407.235-1.065.235-1.47 0l-10.56-6.096c-.406-.235-.406-.616 0-.85.406-.235 1.065-.235 1.471 0l10.559 6.095c.408.236.408.616 0 .851M391.427 168.556c-.406.235-1.066.235-1.472 0l-.092-.053c-.407-.235-.407-.615 0-.85.406-.236 1.065-.236 1.472 0l.092.052c.406.236.406.616 0 .851M409.001 175.303c-.406.234-1.065.234-1.473 0l-2.437-1.408c-.406-.235-.406-.616 0-.85.406-.236 1.065-.236 1.472 0l2.438 1.407c.407.236.407.616 0 .85M404.216 172.54c-.407.235-1.065.235-1.47 0l-11.78-6.8c-.406-.235-.406-.615 0-.85.407-.234 1.066-.234 1.473 0l11.777 6.8c.408.234.408.615 0 .85M408.265 171.477c-.406.235-1.066.235-1.472 0l-9.202-5.312c-.406-.234-.406-.614 0-.85.408-.234 1.066-.234 1.473 0l9.201 5.313c.407.235.407.615 0 .85M412.773 170.681c-.406.235-1.065.235-1.47 0l-12.331-7.118c-.407-.235-.407-.616 0-.851s1.065-.235 1.472 0l12.33 7.119c.406.234.406.614 0 .85M422.435 172.859c-.407.234-1.066.234-1.471 0l-20.673-11.935c-.407-.235-.407-.616 0-.85.405-.235 1.066-.235 1.472 0l20.672 11.935c.406.235.406.615 0 .85M399.432 159.579c-.405.233-1.067.233-1.472 0l-2.761-1.595c-.406-.235-.406-.615 0-.85.406-.234 1.066-.234 1.473 0l2.76 1.594c.407.235.407.615 0 .85M422.619 169.565c-.407.235-1.066.235-1.472 0l-1.84-1.062c-.407-.235-.407-.615 0-.85.406-.236 1.065-.236 1.472 0l1.84 1.063c.408.233.408.615 0 .85M418.341 167.095c-.408.234-1.066.234-1.473 0l-15.964-9.216c-.407-.236-.407-.616 0-.851s1.067-.235 1.472 0l15.965 9.217c.407.235.407.615 0 .85M417.283 163.084c-.407.235-1.067.235-1.474 0l-3.678-2.125c-.408-.235-.408-.615 0-.85.405-.234 1.064-.234 1.47 0l3.682 2.126c.406.234.406.614 0 .849M422.067 162.447c-.407.234-1.066.234-1.472 0l-7.36-4.251c-.408-.233-.408-.615 0-.85.405-.234 1.065-.234 1.47 0l7.362 4.25c.406.236.406.616 0 .85M434.212 166.059c-.407.234-1.065.234-1.47 0l-5.031-2.904c-.407-.235-.407-.615 0-.85.406-.234 1.065-.234 1.472 0l5.029 2.904c.408.235.408.615 0 .85M426.913 161.844c-.406.236-1.065.236-1.473 0l-18.464-10.66c-.405-.235-.405-.615 0-.85.407-.234 1.067-.234 1.473 0l18.464 10.66c.406.235.406.617 0 .85M434.397 162.765c-.408.235-1.066.235-1.473 0l-17.728-10.236c-.405-.233-.405-.614 0-.849.407-.235 1.067-.235 1.473 0l17.728 10.236c.407.235.407.615 0 .85M414.307 151.167c-.406.234-1.066.234-1.472 0l-.152-.088c-.408-.235-.408-.616 0-.851.405-.235 1.065-.235 1.47 0l.154.088c.406.236.406.616 0 .85M438.261 161.597c-.406.235-1.066.235-1.472-.001l-7.238-4.179c-.407-.234-.407-.614 0-.849.406-.235 1.065-.235 1.473 0l7.237 4.179c.407.234.407.614 0 .85M428.723 156.09c-.407.234-1.066.234-1.472 0l-12.546-7.243c-.405-.235-.405-.615 0-.85.407-.234 1.067-.234 1.474 0l12.544 7.243c.406.233.406.615 0 .85M434.764 156.179c-.405.234-1.065.234-1.47 0l-9.203-5.314c-.406-.234-.406-.614 0-.849s1.066-.235 1.473 0l9.2 5.312c.407.235.407.616 0 .85" fill="#5f9ef9"/><g clip-path="url(#q)" transform="matrix(.13333 0 0 -.13333 0 466.667)"><g clip-path="url(#r)"><path d="M3044 1995v1h-2v1h-1v1h-2v1h-2v1h-1v1h-2v1h-2v1h-2v1h-1v1h-2v1h-2v1h-2v1h-1v1h-2v1h-2v1h-2v1h-1v1h-2v1h-2v1h-1v1h-2v1h-2v1h-2v1h-1v1h-2v1h-2v1h-2v1h-1v1h-2v1h-2v1h-1v1h-2v1h-2v1h-2v1h-1v1h-2v1h-2v1h-2v1h-1v1h-2v1h-2v1h-2v1h-1v1h-2v1h-2v1h-1v1h-2v1h-2v1h-1v2h2v1h2v1h1v1h2v1h2v1h1v1h2v1h2v1h2v1h1v1h2v1h2v1h2v1h1v1h2v1h2v1h2v1h1v1h2v1h2v1h1v1h2v1h2v1h2v1h1v1h2v1h2v1h2v1h1v1h2v1h2v1h2v1h1v1h2v1h2v1h1v1h2v1h2v1h2v1h1v1h2v1h2v1h2v1h1v1h2v1h2v1h2v1h1v1h2v1h2v-1h1v-1h2v-1h2v-1h2v-1h1v-1h2v-1h2v-1h1v-1h2v-1h2v-1h2v-1h1v-1h2v-1h2v-1h2v-1h1v-1h2v-1h2v-1h2v-1h1v-1h2v-1h2v-1h1v-1h2v-1h2v-1h2v-1h1v-1h2v-1h2v-1h2v-1h1v-1h2v-1h2v-1h2v-1h1v-1h2v-1h2v-1h1v-1h2v-1h2v-1h2v-1h1v-1h2v-1h2v-1h2v-1h1v-1h2v-1h2v-1h1v-1h1v-1h-1v-1h-2v-1h-2v-1h-2v-1h-1v-1h-2v-1h-2v-1h-2v-1h-1v-1h-2v-1h-2v-1h-2v-1h-1v-1h-2v-1h-2v-1h-1v-1h-2v-1h-2v-1h-2v-1h-1v-1h-2v-1h-2v-1h-2v-1h-1v-1h-2v-1h-2v-1h-2v-1h-1v-1h-2v-1h-2v-1h-1v-1h-2v-1h-2v-1h-2v-1h-1v-1h-2v-1h-2v-1h-2v-1h-1v-1h-2v-1h-2v-1h-2v-1h-1v-1h-2v-1h-2v-1h-1v-1h-2v-1h-2v-1h-2v-1" fill="url(#s)"/></g></g><g clip-path="url(#t)" transform="matrix(.13333 0 0 -.13333 0 466.667)"><path d="M3174.15 2069.48l-85.57 49.4 85.57 49.41 85.58-49.41-85.58-49.4" fill="url(#u)"/></g><g clip-path="url(#v)" transform="matrix(.13333 0 0 -.13333 0 466.667)"><path d="M3302.51 2143.58l-85.58 49.41 85.58 49.4 85.57-49.4-85.57-49.41" fill="url(#w)"/></g><g clip-path="url(#x)" transform="matrix(.13333 0 0 -.13333 0 466.667)"><path d="M3086.94 1976.39l-16.56 9.57 154.58 89.24 16.56-9.56-154.58-89.25" fill="url(#y)"/></g><g clip-path="url(#z)" transform="matrix(.13333 0 0 -.13333 0 466.667)"><path d="M3117.3 1958.86l-16.56 9.56 292.6 168.94 16.56-9.57-292.6-168.93" fill="url(#A)"/></g><g clip-path="url(#B)" transform="matrix(.13333 0 0 -.13333 0 466.667)"><path d="M3147.67 1941.33l-16.56 9.56 154.58 89.25 16.57-9.56-154.59-89.25" fill="url(#C)"/></g><g clip-path="url(#D)" transform="matrix(.13333 0 0 -.13333 0 466.667)"><path d="M3371.26 2070.42l-16.56 9.57 138.01 79.68 16.57-9.56-138.02-79.69" fill="url(#E)"/></g><g clip-path="url(#F)" transform="matrix(.13333 0 0 -.13333 0 466.667)"><path d="M1467.65 2405.85l-8.66 5 8.66 5 8.66-5-8.66-5" fill="url(#G)"/></g><g clip-path="url(#H)" transform="matrix(.13333 0 0 -.13333 0 466.667)"><path d="M1566.92 2463.16l-8.66 5 10.93 6.31 8.66-5-10.93-6.31m27.85 16.08l-8.66 5 16.93 9.77 8.65-5-16.92-9.77m33.85 19.54l-8.66 5.01 16.92 9.76 8.66-5-16.92-9.77m33.85 19.55l-8.67 4.99 16.93 9.77 8.66-4.99-16.92-9.77m33.84 19.54l-8.66 5 16.93 9.77 8.65-5-16.92-9.77" fill="url(#I)"/></g><g clip-path="url(#J)" transform="matrix(.13333 0 0 -.13333 0 466.667)"><path d="M1730.16 2557.41l-8.67 5 13 7.5 12.99-7.5-8.66-5-4.33 2.5-4.33-2.5" fill="url(#K)"/></g><g clip-path="url(#L)" transform="matrix(.13333 0 0 -.13333 0 466.667)"><path d="M1774.34 2536.9l-17.76 10.25 8.66 5 17.76-10.25zm35.52-20.51l-17.76 10.25 8.66 5 17.76-10.25zm35.53-20.51l-17.77 10.26 8.66 5 17.77-10.26zm35.52-20.51l-17.76 10.25 8.66 5 17.76-10.25zm35.52-20.51l-17.76 10.26 8.66 5 17.76-10.26zm35.53-20.51l-17.77 10.26 8.66 5 17.77-10.26zm35.52-20.51l-17.76 10.26 8.66 5 17.76-10.26zm35.52-20.51l-17.76 10.26 8.66 5 17.77-10.26zm35.53-20.51l-17.77 10.26 8.66 5 17.77-10.26zm35.52-20.51l-17.76 10.26 8.66 5 17.76-10.26zm35.53-20.5l-17.77 10.25 8.66 5 17.76-10.25zm35.52-20.52l-17.77 10.26 8.66 5 17.77-10.26zm35.52-20.5l-17.76 10.25 8.66 5 17.76-10.25-8.66-5" fill="url(#M)"/></g><g clip-path="url(#N)" transform="matrix(.13333 0 0 -.13333 0 466.667)"><path d="M2227.04 2275.53l-8.66 5 8.66 5 8.66-5-8.66-5" fill="url(#O)"/></g><g clip-path="url(#P)" transform="matrix(.13333 0 0 -.13333 0 466.667)"><path d="M1339.99 2080.39l-281.43 162.48 131.21 75.75 150.22-86.73 150.23 86.73 131.21-75.75-281.44-162.48" fill="url(#Q)"/></g><g clip-path="url(#R)" transform="matrix(.13333 0 0 -.13333 0 466.667)"><path d="M1339.99 2231.89l-150.22 86.73-137.3 79.28 19.14 11.05 268.38-154.96 268.39 154.96 19.14-11.05-137.3-79.28-150.23-86.73" fill="url(#S)"/></g><g clip-path="url(#T)" transform="matrix(.13333 0 0 -.13333 0 466.667)"><path d="M1340 2231.89v-93.61l-287.53 166v93.62L1340 2231.89" fill="url(#U)"/></g><g clip-path="url(#V)" transform="matrix(.13333 0 0 -.13333 0 466.667)"><path d="M1340 2231.89v-93.61l287.53 166v93.62L1340 2231.89" fill="url(#W)"/></g><path d="M171.619 172.732l-16.914-9.765v-.652l16.914 9.766v.651M153.013 161.99l-2.254-1.302v-.65l2.254 1.3v.653M149.067 159.712l-1.691-.977v-.651l1.69.976v.652M215.972 152.53l-2.043 1.18v-2.36l2.043-1.18v2.36" fill="#ccddf9"/><g clip-path="url(#X)" transform="matrix(.13333 0 0 -.13333 0 466.667)"><path d="M1627.52 2420l-7.07 4.08 7.07 4.09V2420" fill="url(#Y)"/></g><g clip-path="url(#Z)" transform="matrix(.13333 0 0 -.13333 0 466.667)"><path d="M1620.45 2424.08l-280.46 161.93-280.45-161.93-7.07 4.09 287.52 166.01 218.27-126.02-5.99-3.46 8.66-5 5.99 3.46 60.6-34.99-7.07-4.09" fill="url(#aa)"/></g><g clip-path="url(#ab)" transform="matrix(.13333 0 0 -.13333 0 466.667)"><path d="M1560.93 2459.7l-8.66 5 5.99 3.46 8.66-5-5.99-3.46" fill="url(#ac)"/></g><g clip-path="url(#ad)" transform="matrix(.13333 0 0 -.13333 0 466.667)"><path d="M1608.38 2408.95l-7.07 4.08 19.14 11.05 7.07-4.08-19.14-11.05" fill="url(#ae)"/></g><g clip-path="url(#af)" transform="matrix(.13333 0 0 -.13333 0 466.667)"><path d="M1339.99 2253.99v8.17l261.32 150.87 7.07-4.08-268.39-154.96" fill="url(#ag)"/></g><g clip-path="url(#ah)" transform="matrix(.13333 0 0 -.13333 0 466.667)"><path d="M1601.31 2413.03l-60.61 35 3.3 1.91-8.65 5-3.31-1.91-192.05 110.87-261.31-150.87-19.14 11.05 280.45 161.93 280.46-161.93-19.14-11.05" fill="url(#ai)"/></g><g clip-path="url(#aj)" transform="matrix(.13333 0 0 -.13333 0 466.667)"><path d="M1540.7 2448.03l-8.66 5 3.31 1.91 8.65-5-3.3-1.91" fill="url(#ak)"/></g><g clip-path="url(#al)" transform="matrix(.13333 0 0 -.13333 0 466.667)"><path d="M1339.99 2262.16l-261.31 150.87 261.31 150.87 192.05-110.87 8.66-5 60.61-35-261.32-150.87" fill="url(#am)"/></g><g clip-path="url(#an)" transform="matrix(.13333 0 0 -.13333 0 466.667)"><path d="M1052.47 2420v8.17l7.07-4.09-7.07-4.08" fill="url(#ao)"/></g><g clip-path="url(#ap)" transform="matrix(.13333 0 0 -.13333 0 466.667)"><path d="M1071.61 2408.95l-19.14 11.05 7.07 4.08 19.14-11.05-7.07-4.08" fill="url(#aq)"/></g><g clip-path="url(#ar)" transform="matrix(.13333 0 0 -.13333 0 466.667)"><path d="M1339.99 2253.99l-268.38 154.96 7.07 4.08 261.31-150.87v-8.17" fill="url(#as)"/></g><g clip-path="url(#at)" transform="matrix(.13333 0 0 -.13333 0 466.667)"><path d="M2164.9 947.82l-645.11 372.45 95.26 55 549.85-317.45 53.91 31.13 95.28-54.99-149.19-86.14" fill="url(#au)"/></g><g clip-path="url(#av)" transform="matrix(.13333 0 0 -.13333 0 466.667)"><path d="M3089.62 1849.42l-1.47 1.79 69.44 40.09 6.28-1.97a42.059 42.059 0 0 1-2.78-6.55c-.73-2.23-1.21-4.46-1.5-6.68l-28.88-2.17-.26-.02c-3.52-2.66-7.76-4.86-12.48-6.57l-5.24-16.17c-3.84-.05-7.73-.21-11.64-.51-3.9-.29-7.73-.71-11.47-1.24" fill="url(#aw)"/></g><g clip-path="url(#ax)" transform="matrix(.13333 0 0 -.13333 0 466.667)"><path d="M3088.15 1851.21l-11.04 13.4-.1.14c-2.59.53-5.12 1.19-7.6 1.99-2.54.84-4.89 1.79-7.05 2.83h-.12l71.1 41.04-1.42-4.38-.04-.14c3.22-2.71 5.55-5.72 6.92-8.88l18.79-5.91-69.44-40.09" fill="url(#ay)"/></g><g clip-path="url(#az)" transform="matrix(.13333 0 0 -.13333 0 466.667)"><path d="M3034.07 1867.45c-1.27 2.1-2.72 4.18-4.42 6.23-1.69 2.06-3.57 4.03-5.59 5.92l21.15 11.56.19.1c.14 3.2 1.26 6.44 3.43 9.54l-12.25 14.87c3.07 1.35 6.05 2.79 8.91 4.35a99.72 99.72 0 0 1 8.02 4.9l25.58-8.04.23-.08c4.39.75 8.95 1.14 13.55 1.14 1.07 0 2.15-.02 3.22-.06l20.71 11.31c3.16-1.27 6.46-2.45 9.93-3.54 3.46-1.09 6.98-2.05 10.54-2.89l-3.93-12.15-71.1-41.04-28.17-2.12" fill="url(#aA)"/></g><g clip-path="url(#aB)" transform="matrix(.13333 0 0 -.13333 0 466.667)"><path d="M2976.41 1777.86l-20.42 11.79c-5.31-.75-10.7-1.21-16.12-1.41l-6.48-7.34-104.44 60.27 13.43 3.96c.39 3.12 1.26 6.22 2.61 9.27l-20.27 11.71c1.04.93 2.05 1.87 3.03 2.83l145.55-84.03 20.39 11.77 3.49-12.71c-3.61-.79-7.17-1.69-10.69-2.73-3.5-1.02-6.86-2.16-10.08-3.38m56.41 26.47l-22.34 2.04 25.08 14.48 7.85-4.53c-2.11-1.86-4.08-3.8-5.87-5.83a54.321 54.321 0 0 1-4.72-6.16" fill="url(#aC)"/></g><g clip-path="url(#aD)" transform="matrix(.13333 0 0 -.13333 0 466.667)"><path d="M2973.3 1784.91l-145.55 84.03c.98.98 1.93 1.98 2.84 3 1.78 2.02 3.35 4.09 4.71 6.17l28.57-2.62c1.64 1.12 3.35 2.22 5.16 3.27a89.56 89.56 0 0 0 6.08 3.19l104.29-60.21 63.86 36.87 4.61-.43c.19-2.22.57-4.45 1.18-6.7.62-2.25 1.46-4.44 2.46-6.59l-25.77-7.58c-.4-3.12-1.26-6.23-2.61-9.28l12.43-7.18-25.08-14.48-6.22.57a77.837 77.837 0 0 0-5.18-3.26c-2.05-1.19-4.19-2.3-6.39-3.36l1-3.64-20.39-11.77m-39.24 61c-2.08 0-4.16-.46-5.75-1.37-3.17-1.84-3.16-4.81 0-6.64 1.59-.91 3.67-1.37 5.75-1.37s4.16.46 5.74 1.37c3.18 1.83 3.18 4.8 0 6.64-1.58.91-3.66 1.37-5.74 1.37" fill="url(#aE)"/></g><g clip-path="url(#aF)" transform="matrix(.13333 0 0 -.13333 0 466.667)"><path d="M2979.4 1821.74l-104.29 60.21c.1.06.21.11.32.16l-4.48 16.36c3.59.78 7.16 1.69 10.67 2.72 3.52 1.03 6.88 2.17 10.09 3.39l20.43-11.8c5.3.76 10.69 1.21 16.11 1.41l13.03 14.76c3.72-.58 7.52-1.06 11.42-1.42 3.88-.36 7.76-.58 11.61-.68l4.51-16.47c5-1.18 9.84-2.63 14.49-4.33l25.55 7.51c2.41-1.73 5-3.41 7.78-5.02 2.79-1.61 5.7-3.1 8.7-4.49l-13.11-14.87c2.9-2.7 5.35-5.51 7.33-8.41l23.7-2.16-63.86-36.87" fill="url(#aG)"/></g><g clip-path="url(#aH)" transform="matrix(.13333 0 0 -.13333 0 466.667)"><path d="M2684.87 842.309c-23.79 0-48.26 5.519-67.15 16.421l-76.7 44.27 187.76 108.4c5.07 1.82 9.84 3.99 14.22 6.52l442.37 255.55 11.48-6.62c18.89-10.91 28.21-25.02 28.21-38.76l.26.3v-73.54l-.24-.13c.09-12.45-7.44-24.62-23.28-33.77L2743 855.91c-15.77-9.109-36.67-13.609-58.13-13.601m-153.85 66.461L2464.77 947l116.29 67.15-5 8.65-121.29-70.03-140.68 81.19 140.34 81.02 163.29-94.24c18.89-10.9 43.36-16.42 67.15-16.42 4.22 0 8.42.17 12.56.52l-166.41-96.07" fill="url(#aI)"/></g><g clip-path="url(#aJ)" transform="matrix(.13333 0 0 -.13333 0 466.667)"><path d="M2541.02 903l-10 5.77 166.41 96.07c11.08.93 21.75 3.11 31.35 6.56L2541.02 903" fill="url(#aK)"/></g><g clip-path="url(#aL)" transform="matrix(.13333 0 0 -.13333 0 466.667)"><path d="M2464.77 947l-10 5.77 121.29 70.03 5-8.65L2464.77 947" fill="url(#aM)"/></g><g clip-path="url(#aN)" transform="matrix(.13333 0 0 -.13333 0 466.667)"><path d="M2314.09 1033.96l-95.28 54.99 140.34 81.02 95.28-54.99-140.34-81.02" fill="url(#aO)"/></g><g clip-path="url(#aP)" transform="matrix(.13333 0 0 -.13333 0 466.667)"><path d="M1573.57 1461.33l-270.41 156.05c-19.32 11.16-28.56 25.65-28.13 39.66l-.35.2v45.78l183.66-106.04 8.66 5-192.32 111.04v18.58l.43-.19c.68 11.78 8.07 23.18 23.11 31.87l16.43 9.49 399.25-230.42-140.33-81.02" fill="url(#aQ)"/></g><g clip-path="url(#aR)" transform="matrix(.13333 0 0 -.13333 0 466.667)"><path d="M1458.34 1596.98l-183.66 106.04v10L1467 1601.98l-8.66-5" fill="url(#aS)"/></g><path d="M169.957 214.185v9.915l8.71 4.79s-.386-10.865-.55-10.974c-.164-.11-8.16-3.73-8.16-3.73M430.043 281.28v9.804l-16.39 9.13z" fill="#e8e2d3"/><path d="M349.03 330.568c4.791 2.764 12.271 2.936 16.703.376l61.174-35.339c4.429-2.558 4.129-6.878-.66-9.642L250.972 184.809c-4.795-2.766-12.273-2.934-16.703-.376l-61.173 35.338c-4.432 2.561-4.135 6.877.659 9.644l175.274 101.153" fill="#e8e2d3"/><path d="M349.03 320.757c4.791 2.766 12.271 2.936 16.703.378l61.174-35.338c4.429-2.56 4.129-6.88-.66-9.645L250.972 175c-4.795-2.767-12.273-2.936-16.703-.376l-61.173 35.337c-4.432 2.56-4.135 6.876.659 9.643l175.274 101.153" fill="#fafffd"/><g clip-path="url(#aT)" transform="matrix(.13333 0 0 -.13333 0 466.667)"><path d="M2525.96 1147.28l-68.3 39.27 188.91 109.07-18.47 10.66 390.38 225.52 86.6-49.98-579.12-334.54m-749.62 431.12l-349.24 200.85 1.9 1.1 84.85 49.01 349.26-200.87-86.77-50.09" fill="url(#aU)"/></g><path d="M206.859 205.453c1.217.703 3.064.779 4.116.171l15.805-9.13c1.052-.607.92-1.674-.297-2.377-1.216-.701-3.064-.778-4.116-.17l-15.806 9.13c-1.052.608-.918 1.675.298 2.376M204.316 210.69c-1.284-.742-1.425-1.863-.313-2.505 1.112-.642 3.053-.561 4.337.179 1.287.743 1.427 1.864.316 2.505-1.112.643-3.053.562-4.34-.18" fill="#939598"/><path d="M205.436 243.693l-.157.272h-.314l-7.878-4.548-.156-.273v-1.564l.156-.272h.314l7.878 4.55.157.27v1.565M220.1 252.204l-.157.27h-.314l-7.878-4.546-.156-.272v-1.565l.156-.272h.314l7.878 4.548.157.272v1.565" fill="#545456"/><g clip-path="url(#aV)" transform="matrix(.13333 0 0 -.13333 0 466.667)"><path d="M3018.48 1531.8l-86.59 49.97 86.59-49.97" fill="url(#aW)"/></g><path d="M402.463 262.427l-11.546-6.663h.002l11.545 6.663" fill="#edf2f0"/><g clip-path="url(#aX)" transform="matrix(.13333 0 0 -.13333 0 466.667)"><path d="M2628.1 1306.28l-16.43 9.48 34.9 20.15-70.17 40.51 355.48 205.35 86.59-49.97-390.37-225.52" fill="url(#aY)"/></g><path d="M201.847 222.752L190.28 216.1l11.567-6.681 11.566 6.652-11.566 6.681" fill="#edf2f0"/><g clip-path="url(#aZ)" transform="matrix(.13333 0 0 -.13333 0 466.667)"><path d="M1863.11 1628.49l-349.26 200.87 86.75 50.11 349.28-200.88-86.77-50.1" fill="url(#ba)"/></g><path d="M405.02 303.435l-16.045 9.262c-.351.204-.638-.01-.638-.481v-1.41c0-.47.287-1.015.638-1.22l16.045-9.262c.352-.204.637.012.637.481v1.411c0 .47-.285 1.016-.637 1.219" fill="#939598"/><g clip-path="url(#bb)" transform="matrix(.13333 0 0 -.13333 0 466.667)"><path d="M3130.45 1954.16l.26.01 28.88 2.17c.29 2.22.77 4.45 1.5 6.68.73 2.24 1.66 4.43 2.78 6.56l-25.07 7.87c-1.37 3.16-3.7 6.18-6.92 8.89l.04.13 5.35 16.53c-3.56.85-7.08 1.8-10.54 2.89-3.47 1.09-6.77 2.28-9.93 3.55l-20.71-11.32c-5.69.23-11.36-.15-16.77-1.07l-.23.07-25.58 8.05c-2.49-1.7-5.16-3.33-8.02-4.9-2.86-1.56-5.84-3.01-8.91-4.36l12.25-14.87c-2.17-3.1-3.29-6.33-3.43-9.54l-.19-.09-21.15-11.57c2.02-1.89 3.9-3.86 5.59-5.91 1.7-2.06 3.15-4.14 4.42-6.24l28.29 2.13c2.16-1.05 4.52-2 7.05-2.83 2.47-.81 5.01-1.47 7.6-1.99l.1-.15 12.51-15.18c3.74.53 7.57.95 11.47 1.24 3.91.3 7.8.45 11.64.5l5.24 16.18c4.72 1.7 8.96 3.91 12.48 6.57" fill="url(#bc)"/></g><g clip-path="url(#bd)" transform="matrix(.13333 0 0 -.13333 0 466.667)"><path d="M2928.31 1918.14c-3.16 1.84-3.17 4.8 0 6.64 3.17 1.83 8.32 1.83 11.49 0 3.18-1.83 3.18-4.8 0-6.64-3.17-1.83-8.32-1.83-11.49 0zm70.77-34.22c1.83 1.06 3.54 2.15 5.18 3.27l28.56-2.61a56.16 56.16 0 0 0 4.72 6.16c1.79 2.03 3.76 3.97 5.87 5.83l-20.28 11.71c1.35 3.04 2.21 6.15 2.61 9.27l25.77 7.59c-1 2.14-1.84 4.34-2.46 6.58-.61 2.25-.99 4.49-1.18 6.71l-28.31 2.59c-1.98 2.89-4.43 5.7-7.33 8.4l13.11 14.87c-3 1.39-5.91 2.89-8.7 4.5a94.82 94.82 0 0 0-7.78 5.02l-25.55-7.52c-4.65 1.71-9.49 3.16-14.49 4.33l-4.51 16.47c-3.85.11-7.73.33-11.61.68-3.9.36-7.7.84-11.42 1.42l-13.03-14.76c-5.42-.19-10.81-.65-16.11-1.4l-20.43 11.79c-3.21-1.22-6.57-2.35-10.09-3.39-3.51-1.03-7.08-1.93-10.67-2.72l4.48-16.36c-2.2-1.05-4.34-2.16-6.4-3.35a82.81 82.81 0 0 1-5.16-3.26l-28.57 2.61a55.193 55.193 0 0 0-4.71-6.17c-1.8-2.02-3.76-3.96-5.87-5.82l20.27-11.71c-1.35-3.05-2.22-6.16-2.61-9.28l-25.77-7.58c1.01-2.15 1.85-4.34 2.46-6.59.62-2.24 1-4.48 1.18-6.71l28.31-2.59c1.99-2.89 4.44-5.7 7.34-8.4l-13.12-14.87c3-1.39 5.91-2.88 8.69-4.49 2.8-1.61 5.38-3.29 7.79-5.02l25.55 7.51c4.65-1.7 9.5-3.15 14.49-4.33l4.52-16.47c3.85-.1 7.72-.32 11.61-.68 3.9-.36 7.7-.84 11.42-1.42l13.02 14.76c5.42.2 10.81.66 16.12 1.4l20.42-11.78c3.22 1.21 6.58 2.35 10.08 3.38 3.52 1.03 7.08 1.93 10.69 2.72l-4.48 16.36c2.19 1.05 4.33 2.16 6.38 3.35" fill="url(#be)"/></g><g clip-path="url(#bf)" transform="matrix(.13333 0 0 -.13333 0 466.667)"><path d="M3111.29 1805.67l-17.33 10 8.67 5 17.31-10zm34.64-20l-17.33 10 8.67 5 17.32-10zm34.64-20l-17.33 10 8.66 5 17.33-10zm34.64-20l-17.32 10 8.65 5 17.33-10zm34.63-20.01l-17.31 10 8.66 5.01 17.32-10.01zm34.65-20l-17.32 10 8.66 5 17.32-10zm31.75-18.33l-14.43 8.33 8.66 5 18.76-10.83-7.23-4.17-4.32 2.5zm-28.88-21.67l-8.66 5 17.33 10 8.66-5zm-34.64-20l-8.66 5 17.33 10 8.66-5zm-34.63-20l-8.67 5 17.33 10 8.65-5zm-34.64-20l-8.66 5 17.31 10 8.66-5zm-34.65-20l-8.66 5 17.32 10 8.66-5zm-31.75-18.33l-8.66 5 14.43 8.33 8.66-5-14.43-8.33" fill="url(#bg)"/></g><g clip-path="url(#bh)" transform="matrix(.13333 0 0 -.13333 0 466.667)"><path d="M1105.49 1605.53l-111.174 64.19 111.174 64.18 111.18-64.18-111.18-64.19" fill="url(#bi)"/></g><g clip-path="url(#bj)" transform="matrix(.13333 0 0 -.13333 0 466.667)"><path d="M1105.49 1405.55l-150.556 86.93 150.556 86.91 150.56-86.93-150.56-86.91" fill="url(#bk)"/></g><g clip-path="url(#bl)" transform="matrix(.13333 0 0 -.13333 0 466.667)"><path d="M994.316 1669.72v-122.7l111.174-64.19v122.7l-111.174 64.19" fill="url(#bm)"/></g><g clip-path="url(#bn)" transform="matrix(.13333 0 0 -.13333 0 466.667)"><path d="M1216.67 1669.72v-122.7l-111.18-64.19v122.7l111.18 64.19" fill="url(#bo)"/></g><g clip-path="url(#bp)" transform="matrix(.13333 0 0 -.13333 0 466.667)"><path d="M2931.89 1581.77l-411.02 237.2 173.24 100.02 134.84-77.82-12.34-3.63c1.01-2.14 1.85-4.34 2.46-6.58.62-2.25 1-4.48 1.18-6.71l28.31-2.59c1.99-2.89 4.44-5.7 7.34-8.4l-13.12-14.87c3-1.4 5.91-2.89 8.69-4.5 2.8-1.61 5.38-3.29 7.79-5.02l25.55 7.52c4.65-1.71 9.5-3.16 14.49-4.33l4.52-16.47c3.85-.11 7.72-.33 11.61-.68 3.9-.36 7.7-.84 11.42-1.43l6.54 7.42 171.69-99.08-173.19-100.05" fill="url(#bq)"/></g><g clip-path="url(#br)" transform="matrix(.13333 0 0 -.13333 0 466.667)"><path d="M2926.85 1773.48c-3.72.59-7.52 1.07-11.42 1.43-3.89.35-7.76.57-11.61.68l-4.52 16.47a124.12 124.12 0 0 0-14.49 4.33l-25.55-7.52a91.737 91.737 0 0 1-7.79 5.02c-2.78 1.61-5.69 3.1-8.69 4.5l13.12 14.87c-2.9 2.7-5.35 5.51-7.34 8.4l-28.31 2.59c-.18 2.23-.56 4.46-1.18 6.71-.61 2.24-1.45 4.44-2.46 6.58l12.34 3.63 104.44-60.27-6.54-7.42" fill="url(#bs)"/></g><g clip-path="url(#bt)" transform="matrix(.13333 0 0 -.13333 0 466.667)"><path d="M2005.89 2116.18l-84.37 48.68-39.23 22.64c-18.67 10.77-42.75 16.29-66.25 16.43l192.07 110.95 171.01-98.69-173.23-100.01" fill="url(#bu)"/></g><path d="M201.847 209.419l-11.567-6.652 51.859-29.958c3.133.019 6.344.755 8.833 2.191l5.23 3.019-28.97 16.734a2.42 2.42 0 0 0-.75-.636c-.665-.384-1.518-.58-2.327-.58-.671 0-1.311.135-1.788.41l-15.806 9.13c-1.052.608-.918 1.675.298 2.376.33.191.708.335 1.102.432l-6.114 3.534m-2.484-5.432c-.706 0-1.38.142-1.884.433-1.112.641-.971 1.763.314 2.504.704.407 1.604.615 2.458.615.705 0 1.378-.143 1.882-.434 1.111-.642.971-1.764-.317-2.505-.701-.405-1.601-.613-2.453-.613" fill="#fbfffd"/><path d="M207.961 205.885a4.26 4.26 0 0 1-1.102-.432c-1.216-.701-1.35-1.768-.298-2.376l15.806-9.13c.477-.275 1.117-.41 1.788-.41.809 0 1.662.196 2.328.58.33.191.581.408.749.636l-19.27 11.132" fill="#aaabae"/><g clip-path="url(#bv)" transform="matrix(.13333 0 0 -.13333 0 466.667)"><path d="M1501.88 1943.46c-6.4 0-13.15 1.56-18.43 4.61-9.64 5.56-10.7 13.97-2.36 18.78 3.78 2.18 8.84 3.25 14.13 3.25 6.39 0 13.14-1.56 18.4-4.6 9.66-5.56 10.71-13.97 2.38-18.79-3.78-2.18-8.83-3.25-14.12-3.25" fill="url(#bw)"/></g><g clip-path="url(#bx)" transform="matrix(.13333 0 0 -.13333 0 466.667)"><path d="M2931.89 1581.77l-411.02 237.2 411.02-237.2m-926.01 534.4l-84.36 48.69 84.37-48.68-.01-.01" fill="url(#by)"/></g><path d="M390.917 255.764l-50.181-28.96-4.62-2.667 54.803 31.627h-.002m-177.504-39.693l-11.566-6.652 6.114-3.534c.4.099.819.15 1.227.15.67 0 1.31-.136 1.787-.411l15.805-9.13c.767-.443.905-1.129.452-1.74l28.97-16.735 11.249 6.492-9.063 5.232.3.173-45.275 26.155m-7.526-8.319c-.707 0-1.38.141-1.884.433-1.112.642-.971 1.763.313 2.504.704.406 1.604.614 2.456.614.707 0 1.38-.143 1.884-.434 1.11-.641.97-1.762-.316-2.505-.701-.405-1.601-.612-2.453-.612" fill="#f1f5f3"/><g clip-path="url(#bz)" transform="matrix(.13333 0 0 -.13333 0 466.667)"><path d="M2576.4 1376.42l-370.18 213.73-204.77 118.22-51.57-29.78-349.28 200.88 339.56 196.16 32.39-18.7-34.64-20 514.87-297.26 102.74 59.3 376.36-217.2-355.48-205.35" fill="url(#bA)"/></g><path d="M209.188 206.035c-.408 0-.827-.051-1.227-.15l19.271-11.132c.453.612.315 1.298-.452 1.742l-15.805 9.129c-.476.275-1.116.41-1.787.41M206.772 211.303c-.852 0-1.752-.208-2.456-.614-1.284-.741-1.425-1.862-.313-2.504.504-.292 1.177-.433 1.884-.433.852 0 1.752.207 2.453.612 1.287.743 1.427 1.864.316 2.505-.504.291-1.177.434-1.884.434" fill="#a4a5a8"/><path d="M340.736 226.804l-4.62-2.667 4.62 2.667" fill="#dee2e0"/><g clip-path="url(#bB)" transform="matrix(.13333 0 0 -.13333 0 466.667)"><path d="M2452.78 1739.67l-514.87 297.26 34.64 20 480.23-277.27 68.09 39.31 34.65-20-102.74-59.3" fill="url(#bC)"/></g><g clip-path="url(#bD)" transform="matrix(.13333 0 0 -.13333 0 466.667)"><path d="M2694.11 1918.99l-514.99 297.2 152.39 87.98 265.47-153.26-93.86-54.19 28.85-16.66-34.95-20.17 220.56-127.34-23.47-13.56" fill="url(#bE)"/></g><g clip-path="url(#bF)" transform="matrix(.13333 0 0 -.13333 0 466.667)"><path d="M2717.58 1932.55l-220.56 127.34 34.95 20.17 220.56-127.34-34.95-20.17" fill="url(#bG)"/></g><g clip-path="url(#bH)" transform="matrix(.13333 0 0 -.13333 0 466.667)"><path d="M2531.97 2080.06l-28.85 16.66 93.86 54.19 28.84-16.66-93.85-54.19" fill="url(#bI)"/></g><g clip-path="url(#bJ)" transform="matrix(.13333 0 0 -.13333 0 466.667)"><path d="M2752.53 1952.72l-220.56 127.34 93.85 54.19 6.93-4c-3.05-1.76-3.05-4.62 0-6.38l20.7-11.95c1.53-.88 3.53-1.32 5.52-1.32 2 0 4 .44 5.53 1.32l6.9-3.98c-3.05-1.76-3.05-4.62 0-6.38l154.58-89.24c1.52-.88 3.52-1.32 5.52-1.32 2 0 4 .44 5.52 1.32l9.37-5.41-93.86-54.19m-53.88 118.49c-1.99 0-3.99-.44-5.52-1.32-3.05-1.76-3.05-4.62 0-6.38l96.97-55.98c1.52-.88 3.52-1.32 5.51-1.32 2 0 4 .44 5.52 1.32 3.05 1.76 3.05 4.62 0 6.38l-96.95 55.98c-1.53.88-3.53 1.32-5.53 1.32m-54.17 5.78c-2 0-3.99-.44-5.52-1.33-3.05-1.75-3.05-4.61 0-6.37l92.47-53.39c1.53-.88 3.53-1.32 5.53-1.32 1.99 0 3.99.44 5.52 1.32 3.05 1.76 3.05 4.61 0 6.38l-92.48 53.38c-1.52.89-3.52 1.33-5.52 1.33m-14.49 33.86c-2 0-4-.44-5.52-1.32-3.05-1.76-3.05-4.61 0-6.38l50.72-29.28c1.53-.88 3.52-1.32 5.52-1.32 2 0 4 .44 5.53 1.32 3.04 1.76 3.04 4.62 0 6.37l-50.73 29.29c-1.52.88-3.52 1.32-5.52 1.32" fill="url(#bK)"/></g><path d="M364.928 198.056c-.267 0-.533-.059-.737-.176l-12.33-7.119c-.406-.234-.406-.616 0-.849.204-.119.47-.177.736-.177.267 0 .534.058.736.177l12.331 7.117c.407.236.407.616 0 .851a1.51 1.51 0 0 1-.736.176M372.748 199.172a1.5 1.5 0 0 1-.735-.176l-12.929-7.464c-.407-.235-.407-.616 0-.85a1.51 1.51 0 0 1 .736-.177c.267 0 .533.059.737.176l12.927 7.464c.407.235.407.616 0 .851-.203.117-.47.176-.736.176M357.428 190.327c-.267 0-.532-.059-.736-.176l-6.763-3.904c-.406-.236-.406-.616 0-.851.203-.117.47-.176.736-.176.267 0 .534.059.736.176l6.764 3.905c.406.234.406.615 0 .85-.204.117-.47.176-.737.176M377.533 198.533c-.266 0-.533-.058-.736-.176l-20.61-11.898c-.407-.235-.407-.616 0-.851l22.082 12.75c-.202.117-.469.175-.736.175M354.53 185.253a1.51 1.51 0 0 1-.737-.176l-2.76-1.593c-.406-.235-.406-.616 0-.85l4.234 2.443c-.204.118-.471.176-.738.176" fill="#81b3fa"/><g clip-path="url(#bL)" transform="matrix(.13333 0 0 -.13333 0 466.667)"><path d="M2520.87 1818.97l-514.98 297.21 173.23 100.01 514.99-297.2-173.24-100.02" fill="url(#bM)"/></g><g clip-path="url(#bN)" transform="matrix(.13333 0 0 -.13333 0 466.667)"><path d="M2520.87 1818.97l-514.99 297.2.01.01 514.98-297.21" fill="url(#bO)"/></g><path d="M336.116 224.137l-64.045-36.961-4.323-2.493-9.06 5.233-.3-.173 9.063-5.232 68.665 39.626" fill="#f4f7f6"/><g clip-path="url(#bP)" transform="matrix(.13333 0 0 -.13333 0 466.667)"><path d="M1972.55 2056.93l-32.39 18.7 67.95 39.25 32.42-18.7-67.98-39.25" fill="url(#bQ)"/></g><path d="M336.116 224.137l-64.045-36.961 64.045 36.961" fill="#e5e8e7"/><g clip-path="url(#bR)" transform="matrix(.13333 0 0 -.13333 0 466.667)"><path d="M2452.78 1779.66l-480.23 277.27 67.98 39.25 480.34-277.21-68.09-39.31" fill="url(#bS)"/></g><g clip-path="url(#bT)" transform="matrix(.13333 0 0 -.13333 0 466.667)"><path d="M2463.82 2195.68l-222.37-128.38-84.5 48.78 222.37 128.39 84.5-48.79" fill="url(#bU)"/></g><g clip-path="url(#bV)" transform="matrix(.13333 0 0 -.13333 0 466.667)"><path d="M2598.36 2118.01l-222.37-128.39-84.51 48.79 222.38 128.39 84.5-48.79" fill="url(#bW)"/></g><g clip-path="url(#bX)" transform="matrix(.13333 0 0 -.13333 0 466.667)"><path d="M2732.9 2040.34l-222.37-128.39-84.51 48.79 222.38 128.38 84.5-48.78" fill="url(#bY)"/></g><path d="M327.624 318.213l-13.07-7.542 8.473-4.892 4.661 2.681-.064 9.753" fill="#9d998f"/><g clip-path="url(#bZ)" transform="matrix(.13333 0 0 -.13333 0 466.667)"><path d="M2457.66 1186.55l-34.96 20.11 86.77 50.1 16.49-9.48 102.14 59 18.47-10.66-188.91-109.07" fill="url(#ca)"/></g><g clip-path="url(#cb)" transform="matrix(.13333 0 0 -.13333 0 466.667)"><path d="M2525.96 1247.28l-16.49 9.48 102.2 59 16.43-9.48-102.14-59" fill="url(#cc)"/></g><path d="M352.876 288.545l-64.223 37.079-86.014-49.66 64.221-37.08 86.016 49.661" fill="#fff"/><g clip-path="url(#cd)" transform="matrix(.13333 0 0 -.13333 0 466.667)"><path d="M1724.56 1312.05l-204.77 118.22 481.66 278.1 204.77-118.22-481.66-278.1m8.36 184.6c-29.75 0-59.5-6.54-82.14-19.62-45.28-26.16-45.25-68.7.05-94.83 22.64-13.07 52.37-19.6 82.11-19.6 29.75 0 59.5 6.54 82.14 19.62 45.27 26.16 45.25 68.7-.05 94.83-22.64 13.07-52.38 19.6-82.11 19.6" fill="url(#ce)"/></g><path d="M265.445 284.841l-20.432 11.798-3.258-1.882 20.433-11.796 3.257 1.88M289.605 277.295l-39.048 22.544-3.257-1.88 39.047-22.544 3.258 1.88M276.533 291.244l-20.432 11.796-3.257-1.881 20.432-11.798 3.257 1.883M291.385 289.07l-29.74 17.171-3.257-1.88 29.74-17.17 3.257 1.88M287.621 297.645l-20.432 11.796-3.257-1.88 20.432-11.797 3.257 1.881M321.09 284.725l-48.357 27.918-3.257-1.882 48.356-27.917 3.257 1.881" fill="#ccddf9"/><path d="M241.841 269.82c5.96 3.439 5.963 9.016.007 12.456-5.956 3.441-15.616 3.443-21.576.004-5.96-3.439-5.963-9.016-.007-12.456 5.956-3.441 15.616-3.443 21.576-.004" fill="#f2f2f2"/><path d="M220.428 269.917c-5.856 3.384-5.853 8.888.007 12.27 5.86 3.381 15.393 3.38 21.25-.004 5.858-3.383 5.855-8.887-.006-12.268-5.86-3.383-15.394-3.382-21.251.002m21.583 12.454c-6.038 3.488-15.862 3.489-21.9.002-6.04-3.484-6.044-9.156-.007-12.644 6.036-3.486 15.86-3.488 21.9-.002 6.04 3.484 6.043 9.156.007 12.644" fill="#4d4d4d"/><path d="M231.277 278.885s.072-.414 2.022-1.541c1.949-1.127 2.669-1.168 2.669-1.168l.987.57-4.216 2.28-.579.327-.883-.468" fill="#719daf"/><path d="M234.568 275.744l-2.02 1.167-2.02 1.166 4.643 2.862 2.178-1.258 2.179-1.258-4.96-2.679" fill="#f6cdaf"/><path d="M230.761 278.221v-.001l-.232-.143.234.144h-.002m4.79-1.946l-.983-.531.983.53" fill="#bbb"/><path d="M235.895 276.46l-.344-.185.344.185" fill="#62808d"/><path d="M230.763 278.221l-.234-.144c1.115-.024 2.123-.245 2.87-.676.748-.432 1.129-1.014 1.169-1.657l.983.53.344.186c-.182.415-.659.932-.994 1.264l-4.138.497" fill="#bea18d"/><path d="M241.685 282.183c3.107-1.795 4.564-4.186 4.374-6.54l-1.27-.57c-3.305-1.01-8.586 1.579-8.586 1.579l-.846.75-.814.66-1.2.449-1.24.51s-4.483 3.051-2.731 4.958l.99.733c4.077.108 8.217-.735 11.323-2.53" fill="#97b9c9"/><path d="M231.99 272.395c2.785 1.605 3.415 3.848 1.409 5.006-2.007 1.159-5.89.796-8.675-.81-2.783-1.607-5.299-2.76-1.408-5.007 3.89-2.248 5.89-.796 8.675.81" fill="#f6cdaf"/><path d="M224.107 276.237s-.799-.12-.696.212c.101.332 1.522.69 2.308.643l-1.612-.855M231.376 272.036s-.21-.46.368-.4c.576.059 1.193.879 1.116 1.332l-1.484-.932" fill="#f6cdaf"/><path d="M233.803 279.787c-.071 0-.142-.003-.21-.006a4.224 4.224 0 0 0 1.759-.402l-.763-1.243.58.945.226-.014.194.317a4.21 4.21 0 0 1-1.786.403m1.008-1.671l-.106-.021.106.021" fill="#7c949f"/><path d="M236.685 276.432l.2-.087-.2.087" fill="#bbb"/><path d="M237.108 278.472l-.164-.035c1.355-1.076-.108-1.952-.108-1.952l-.15-.053.2-.087.234.083s1.547.927-.012 2.044" fill="#7c949f"/><path d="M234.543 278.061s1.408-1.238 1.425-1.885l.868.31s1.547.925-.012 2.042l-2.281-.467" fill="#81a7ba"/><path d="M224.708 270.607c-1.865.785-4.148 2.02-3.177 2.51l.002.002c-1.286.413-1.372 1.38-.168 2.157 1.362.877 3.03.848 3.03.848-2.828-1.452-2.295-3.14-2.295-3.14s1.993-.924 4.193-.19c.415.14.382-1.154 4.434-.618 0 0 .553-.459-.303-1.075-.856-.614-3.707-1.34-5.716-.494" fill="#815844"/><path d="M230.981 274.09c-.782.451-2.294.183-2.813-.169-.517-.349 1.923-1.885 2.67-1.565 0 0 1.877.71.143 1.733zm-3.32 1.918c-1.772 1.001-3.002-.083-3.002-.083-.554-.43 2.102-1.841 2.71-1.541.608.299 1.075 1.172.292 1.624zm3.008-4.156c-.329.063-1.672.68-2.313 1.221-.637.538-1.047.815-1.047.815s-.478.236-1.41.604c-.936.37-2.006 1.147-2.114 1.337l-.181.239.405.135s.043-.104.354-.024c.31.078 1.63.792 3.129.124 1.5-.667.659-1.579.077-2.036-.056-.035-.009-.046.155-.139.164-.096.181-.123.241-.09.794.335 2.372.82 3.527-.046 1.155-.865-.079-1.628-.216-1.807-.139-.178.043-.205.043-.205l-.236-.232s-.234.07-.414.104" fill="#231f20"/><path d="M234.543 278.061l.626 1.02 1.028-.065.111-.593-1.765-.362" fill="#38909e"/><path d="M237.663 279.204l-1.411-.485-.055.297-.514.032.841.813 1.912 1.23 2.436 1.525c.277-.139.55-.281.813-.433.263-.152.51-.31.75-.47l-2.643-1.405-2.13-1.104" fill="#38909e"/><path d="M236.313 279.105l-.63-.057.514-.032.055-.297.305.105-.244.281" fill="#3b7781"/><path d="M234.543 278.061s-2.146.814-3.266.824l.536.502s1.604.892 3.539-.008l-.81-1.318" fill="#81a7ba"/><path d="M235.17 279.081l-.627-1.02.72 1.014-.094.006" fill="#3b7781"/><path d="M245.153 278.361l-.953.955-1.653.55-1.14-.657 2.606-1.505zm-4.369.583l1.744 1.007 1.756-.587 1.012-1.013-1.743-1.006-2.769 1.599" fill="#81a7ba"/><path d="M242.615 278.199v.202l-.35.002v-.204h.35" fill="#97b9c9"/><path d="M242.475 278.28h.088v-.05h-.088v.05M242.404 278.321v.051h-.088v-.05h.088M242.475 278.321v.051h.088v-.05h-.088M242.404 278.28h-.088v-.05h.088v.05" fill="#81a7ba"/><path d="M263.725 257.481l-17.646 10.19-2.988-1.726 17.646-10.188 2.988 1.724M273.98 251.561l-7.643 4.412-2.988-1.724 7.644-4.413 2.987 1.725" fill="#ccddf9"/><path d="M202.639 275.964v1.71l86.014 49.66v-1.71l-86.014-49.66" fill="#d4d4d4"/><path d="M352.876 288.545v1.708l-64.223 37.08v-1.709l64.223-37.079" fill="#ebebeb"/><path d="M351.772 264.953c2.524 1.458 2.524 3.82 0 5.279-2.525 1.457-6.619 1.457-9.143 0-2.525-1.459-2.525-3.821 0-5.279 2.524-1.457 6.618-1.457 9.143 0M365.437 257.063c2.524 1.458 2.524 3.821 0 5.278-2.524 1.459-6.617 1.459-9.142 0-2.524-1.457-2.524-3.82 0-5.278 2.525-1.458 6.618-1.458 9.142 0M379.103 249.173c2.525 1.458 2.525 3.82 0 5.279-2.524 1.457-6.618 1.457-9.142 0-2.525-1.459-2.525-3.821 0-5.279 2.524-1.457 6.618-1.457 9.142 0M392.77 241.283c2.525 1.458 2.525 3.821 0 5.278-2.525 1.459-6.62 1.459-9.143 0-2.526-1.457-2.526-3.82 0-5.278 2.524-1.458 6.618-1.458 9.142 0" fill="#ccddf9"/><g clip-path="url(#cf)" transform="matrix(.13333 0 0 -.13333 0 466.667)"><path d="M1549.38 1587.01l-5 8.65 11.3 6.53 5-8.65zm-368.73-19.82l-17.32 10 5 8.65 17.32-10zm334.1-.18l-5 8.65 17.32 10 5-8.65zm-299.45-19.82l-17.33 10 5 8.65 17.33-10zm264.8-.18l-5 8.65 17.32 10 5-8.65zm-230.16-19.82l-17.32 10 5 8.65 17.32-10zm195.52-.18l-5 8.65 17.32 10 5-8.65zm-160.88-19.82l-17.32 10 5 8.65 17.32-10zm126.24-.18l-5 8.65 17.32 10 5-8.65zm-91.6-19.82l-17.32 10 5 8.65 17.32-10zm56.96-.18l-5 8.65 17.32 10 5-8.65zm-28.33-16.36l-11.31 6.54 5 8.65 6.31-3.64 6.01 3.46 5-8.65-11.01-6.36" fill="url(#cg)"/></g><path d="M320.777 174.364c-1.488.86-3.9.86-5.388 0-1.488-.859-1.488-2.252 0-3.11 1.488-.86 3.9-.86 5.388 0 1.488.858 1.488 2.251 0 3.11M339.11 184.833c-1.487.86-3.9.86-5.387 0-1.488-.86-1.488-2.252 0-3.11 1.488-.86 3.9-.86 5.388 0 1.488.858 1.488 2.25 0 3.11M277.248 236.763a.847.847 0 0 1-.764 0l-39.419-22.759c-.21-.121-.21-.319 0-.44a.847.847 0 0 1 .764 0l39.419 22.759c.21.121.21.317 0 .44M283.783 232.99a.844.844 0 0 1-.763 0l-39.419-22.76c-.21-.12-.21-.318 0-.44a.836.836 0 0 1 .763 0l39.419 22.76c.212.12.212.318 0 .44M290.32 229.216a.847.847 0 0 1-.764 0l-39.417-22.759c-.212-.122-.212-.318 0-.441a.842.842 0 0 1 .761 0l39.42 22.76c.21.121.21.317 0 .44M296.856 225.443a.847.847 0 0 1-.764 0l-39.419-22.759c-.21-.123-.21-.319 0-.44a.836.836 0 0 1 .763 0l39.42 22.757c.21.123.21.32 0 .442" fill="#ccddf9"/><path d="M258.173 225.75c-.841.487-2.208.487-3.052 0l-6.993-4.037c-.843-.486-.843-1.276 0-1.762.844-.487 2.21-.487 3.052 0l6.993 4.038c.843.486.843 1.275 0 1.762M272.339 226.383c-.843.485-2.208.485-3.052 0l-6.994-4.039c-.842-.485-.842-1.275 0-1.761.843-.487 2.21-.487 3.052 0l6.994 4.037c.842.487.842 1.276 0 1.763M263.616 213.799c-.841.486-2.208.486-3.052 0l-6.993-4.039c-.843-.485-.843-1.275 0-1.761.842-.487 2.209-.487 3.052 0l6.993 4.037c.843.487.843 1.276 0 1.763M293.041 223.24c-.844.487-2.209.487-3.052 0l-6.993-4.037c-.843-.487-.843-1.276 0-1.763.841-.487 2.208-.487 3.05 0l6.995 4.037c.843.488.843 1.276 0 1.763" fill="#00e7ff"/><path d="M397.087 297.765L388 303.012c-1.364.788-3.448.873-4.63.19l-5.902-3.405c-1.181-.684-1.032-1.886.334-2.674l9.084-5.246c1.365-.788 3.449-.874 4.632-.192l5.9 3.407c1.182.683 1.033 1.885-.332 2.673" fill="#e8e2d3"/></svg>